<svg width="19" height="18" viewBox="0 0 19 18" fill="none" xmlns="http://www.w3.org/2000/svg">
<path d="M9.09181 16.3794C4.90411 16.3794 1.50952 12.9848 1.50952 8.79714C1.50952 4.60945 4.90411 1.21486 9.09181 1.21486C13.2795 1.21486 16.6741 4.60945 16.6741 8.79714C16.6741 12.9848 13.2795 16.3794 9.09181 16.3794ZM9.09181 14.863C10.7006 14.863 12.2434 14.2239 13.381 13.0863C14.5186 11.9488 15.1576 10.4059 15.1576 8.79714C15.1576 7.18839 14.5186 5.64552 13.381 4.50796C12.2434 3.37039 10.7006 2.73132 9.09181 2.73132C7.48305 2.73132 5.94018 3.37039 4.80262 4.50796C3.66506 5.64552 3.02598 7.18839 3.02598 8.79714C3.02598 10.4059 3.66506 11.9488 4.80262 13.0863C5.94018 14.2239 7.48305 14.863 9.09181 14.863ZM8.33358 11.0718H9.85004V12.5883H8.33358V11.0718ZM9.85004 9.82454V10.3136H8.33358V9.17626C8.33358 8.97516 8.41346 8.78231 8.55566 8.64011C8.69785 8.49791 8.89071 8.41803 9.09181 8.41803C9.3072 8.41802 9.51817 8.35684 9.70015 8.24161C9.88214 8.12639 10.0277 7.96185 10.1198 7.76715C10.2119 7.57246 10.2469 7.3556 10.2206 7.14181C10.1943 6.92803 10.1078 6.72611 9.97123 6.55954C9.83465 6.39298 9.65359 6.26863 9.4491 6.20095C9.24461 6.13327 9.02511 6.12505 8.81613 6.17724C8.60716 6.22944 8.4173 6.3399 8.26865 6.49578C8.12 6.65166 8.01867 6.84655 7.97645 7.05777L6.48881 6.75978C6.58103 6.29885 6.794 5.87066 7.10595 5.51901C7.41789 5.16735 7.81762 4.90484 8.26427 4.7583C8.71092 4.61177 9.18847 4.58646 9.64811 4.68498C10.1077 4.78349 10.533 5.0023 10.8803 5.31902C11.2277 5.63574 11.4847 6.03902 11.6251 6.48763C11.7656 6.93624 11.7843 7.41409 11.6795 7.87234C11.5747 8.33058 11.3502 8.75279 11.0287 9.09578C10.7073 9.43878 10.3005 9.69027 9.85004 9.82454Z" fill="#1A1A1A" fill-opacity="0.48"/>
</svg>
