<svg width="640" height="664" viewBox="0 0 640 664" fill="none" xmlns="http://www.w3.org/2000/svg">
<path d="M120 232.804H238.219C238.219 232.804 227.064 222.419 222.11 222.419C217.157 222.419 202.681 187.559 184.196 189.046C165.71 190.534 155.896 216.483 155.896 216.483C155.896 216.483 133.4 209.444 120 232.804Z" fill="#C83E28"/>
<path d="M393.257 308.601H567.106C567.106 308.601 567.106 297.485 543.149 295.321C543.149 295.321 521.277 246.769 487.904 253.289C467.108 257.353 456.484 285.892 456.484 285.892C456.484 285.892 440.773 263.435 428.21 267.778C415.648 272.12 408.184 296.038 408.184 296.038C408.184 296.038 395.223 302.332 393.257 308.601Z" fill="white" fill-opacity="0.5"/>
<path d="M319.115 413.38H420.216C420.216 413.38 415.196 406.833 409.645 406.023C409.645 406.023 398.875 373.938 380.827 373.712C364.055 373.5 357.335 393.447 357.335 393.447C357.335 393.447 349.566 384.496 342.143 388.586C334.719 392.676 330.509 404.389 330.509 404.389C330.509 404.389 322.156 408.878 319.115 413.38Z" fill="#EBEBEB" fill-opacity="0.2"/>
<path d="M406.989 183.171H269.514C269.514 183.171 276.353 174.273 283.883 173.158C283.883 173.158 298.531 129.52 323.072 129.214C345.888 128.922 355.024 156.053 355.024 156.053C355.024 156.053 365.595 143.889 375.688 149.453C385.781 155.017 391.504 170.94 391.504 170.94C391.504 170.94 402.872 177.049 406.989 183.171Z" fill="#6C0000" fill-opacity="0.3"/>
<path d="M555.021 544.36L493.269 544.042L431.504 543.922L308 543.696L184.496 543.922L122.731 544.042L60.9789 544.36L122.731 544.679L184.496 544.799L308 545.024L431.504 544.799L493.269 544.679L555.021 544.36Z" fill="#263238"/>
<path d="M458.808 89.1486C459.246 88.8432 480.746 84.7264 494.863 102.429C507.838 118.697 507.625 143.105 505.367 143.119C502.592 143.132 498.196 130.37 485.992 120.888C481.663 117.528 473.376 117.727 473.376 117.727L458.808 89.1486Z" fill="#FF9C88"/>
<path d="M417.679 118.617C417.241 118.922 406.445 137.979 418.662 157.023C429.897 174.539 453.071 182.188 453.814 180.05C454.731 177.421 444.04 169.161 438.994 154.553C437.201 149.373 440.056 141.591 440.056 141.591L417.679 118.617Z" fill="#FF9C88"/>
<path d="M454.636 153.23L479.555 135.382C479.554 135.372 479.554 135.363 479.553 135.353C479.541 135.154 479.521 134.859 479.489 134.475C479.425 133.708 479.315 132.586 479.131 131.173C478.761 128.347 478.091 124.361 476.892 119.728C474.493 110.458 469.979 98.6202 461.528 88.2967C453.076 77.9822 441.958 69.4256 431.502 63.2448L431.501 63.2443C424.295 58.9631 417.419 55.829 411.989 54.0295C409.273 53.1292 406.934 52.5682 405.105 52.3602C404.19 52.2562 403.417 52.2421 402.796 52.3122C402.169 52.3829 401.736 52.535 401.464 52.7295C401.19 52.9259 400.906 53.2887 400.636 53.8603C400.37 54.4267 400.134 55.1632 399.939 56.0627C399.548 57.8614 399.328 60.2558 399.309 63.1167C399.269 68.8346 400.027 76.3512 401.754 84.5564C404.269 96.4294 408.781 109.704 415.833 121.035C422.9 132.347 432.661 140.424 440.669 145.675C444.671 148.3 448.23 150.215 450.787 151.474C452.065 152.104 453.092 152.568 453.799 152.875C454.152 153.029 454.425 153.143 454.609 153.218C454.618 153.222 454.627 153.226 454.636 153.23Z" fill="#FED2C8" stroke="black"/>
<path d="M456.65 152.407L478.122 137.021L482.794 143.541L461.322 158.927L456.65 152.407Z" fill="#FF8568"/>
<path d="M423.217 109.507C428.171 116.426 437.785 118.006 444.704 113.053C451.623 108.099 453.203 98.4845 448.25 91.5656C443.297 84.6467 433.682 83.0664 426.763 88.0198C419.844 92.9733 418.264 102.601 423.217 109.507Z" fill="#FF917B"/>
<path d="M435.727 111.22C429.83 111.22 425.05 106.44 425.05 100.543C425.05 94.6461 429.83 89.8658 435.727 89.8658C441.624 89.8658 446.404 94.6461 446.404 100.543C446.404 106.44 441.624 111.22 435.727 111.22Z" fill="#2F3032"/>
<path d="M401.265 84.66L431.756 62.8144C417.294 54.2222 404.121 50.2117 401.173 52.3232C398.211 54.448 397.799 68.1928 401.265 84.66Z" fill="#EF927F"/>
<path d="M425.369 63.3058C425.727 63.8104 426.444 63.9299 426.949 63.5714C427.454 63.2128 427.573 62.4957 427.215 61.991C426.856 61.4864 426.139 61.3669 425.634 61.7254C425.116 62.084 424.997 62.7878 425.369 63.3058Z" fill="#EBEBEB"/>
<path d="M419.512 67.5022C419.871 68.0069 420.588 68.1264 421.092 67.7678C421.597 67.4093 421.717 66.6921 421.358 66.1875C420.999 65.6829 420.282 65.5633 419.778 65.9219C419.26 66.2805 419.14 66.9843 419.512 67.5022Z" fill="#EBEBEB"/>
<path d="M413.656 71.6987C414.014 72.2033 414.731 72.3229 415.236 71.9643C415.741 71.6057 415.86 70.8886 415.502 70.384C415.143 69.8793 414.426 69.7598 413.921 70.1184C413.403 70.4769 413.284 71.1808 413.656 71.6987Z" fill="#EBEBEB"/>
<path d="M407.799 75.8952C408.158 76.3998 408.875 76.5194 409.38 76.1608C409.884 75.8022 410.004 75.0851 409.645 74.5805C409.287 74.0758 408.57 73.9563 408.065 74.3149C407.547 74.6734 407.427 75.3773 407.799 75.8952Z" fill="#EBEBEB"/>
<path d="M401.943 80.0917C402.301 80.5963 403.018 80.7158 403.523 80.3573C404.028 79.9987 404.147 79.2816 403.789 78.777C403.43 78.2723 402.713 78.1528 402.208 78.5114C401.69 78.8699 401.571 79.5738 401.943 80.0917Z" fill="#EBEBEB"/>
<path d="M416.67 313.66C416.737 312.757 416.776 311.854 416.776 310.978H415.78C415.78 311.828 415.754 312.717 415.687 313.594L416.67 313.66Z" fill="#263238"/>
<path d="M320.921 385.279C321.453 385.279 321.971 385.279 322.502 385.266L322.488 384.27C320.736 384.297 318.956 384.283 317.163 384.217L317.123 385.213C318.398 385.253 319.66 385.279 320.921 385.279ZM329.208 384.947C330.988 384.801 332.794 384.602 334.547 384.376L334.414 383.394C332.674 383.633 330.881 383.819 329.115 383.965L329.208 384.947ZM310.417 384.735L310.523 383.739C308.77 383.566 306.991 383.327 305.238 383.062L305.078 384.044C306.858 384.323 308.651 384.562 310.417 384.735ZM341.187 383.248C342.926 382.902 344.693 382.491 346.432 382.052L346.18 381.083C344.454 381.521 342.714 381.919 340.988 382.278L341.187 383.248ZM298.492 382.823L298.704 381.853C296.991 381.481 295.264 381.043 293.538 380.578L293.272 381.534C295.012 381.999 296.765 382.437 298.492 382.823ZM352.873 380.167C354.573 379.609 356.273 379.011 357.946 378.374L357.588 377.444C355.941 378.082 354.254 378.679 352.568 379.224L352.873 380.167ZM286.845 379.569L287.164 378.626C285.49 378.068 283.804 377.444 282.157 376.807L281.799 377.736C283.459 378.387 285.158 378.998 286.845 379.569ZM364.135 375.771C365.755 375.027 367.375 374.244 368.968 373.42L368.504 372.531C366.923 373.354 365.316 374.137 363.723 374.868L364.135 375.771ZM275.61 375.107L276.035 374.204C274.441 373.46 272.848 372.65 271.294 371.813L270.816 372.69C272.383 373.54 273.99 374.35 275.61 375.107ZM374.838 370.14C376.379 369.211 377.906 368.241 379.38 367.258L378.822 366.435C377.361 367.418 375.848 368.374 374.32 369.29L374.838 370.14ZM265.052 369.25L265.597 368.414C264.136 367.471 262.675 366.435 261.241 365.373L260.644 366.169C262.104 367.245 263.578 368.281 265.052 369.25ZM384.838 363.341C386.246 362.252 387.667 361.123 389.021 359.968L388.371 359.211C387.016 360.353 385.622 361.482 384.227 362.557L384.838 363.341ZM255.424 361.973L256.075 361.216C254.76 360.087 253.432 358.879 252.144 357.644L251.454 358.361C252.755 359.609 254.096 360.831 255.424 361.973ZM394.001 355.439C395.289 354.191 396.551 352.889 397.759 351.588L397.029 350.911C395.834 352.199 394.586 353.487 393.311 354.722L394.001 355.439ZM246.753 353.567L247.483 352.889C246.314 351.628 245.132 350.273 243.964 348.892L243.207 349.53C244.389 350.937 245.584 352.292 246.753 353.567ZM402.142 346.488C403.271 345.081 404.36 343.62 405.369 342.172L404.559 341.601C403.563 343.036 402.487 344.47 401.372 345.864L402.142 346.488ZM239.01 344.311L239.807 343.7C238.758 342.332 237.696 340.884 236.647 339.41L235.836 339.995C236.872 341.469 237.948 342.929 239.01 344.311ZM408.981 336.502C409.897 334.922 410.747 333.315 411.504 331.734L410.601 331.296C409.858 332.85 409.021 334.43 408.118 335.997L408.981 336.502ZM232.038 334.457L232.875 333.912C231.906 332.438 230.949 330.938 229.993 329.41L229.143 329.942C230.1 331.456 231.069 332.969 232.038 334.457ZM414.094 325.519C414.705 323.78 415.209 322.04 415.621 320.34L414.652 320.114C414.253 321.774 413.762 323.488 413.164 325.201L414.094 325.519ZM225.691 324.191L226.554 323.687C225.664 322.16 224.774 320.619 223.898 319.052L223.035 319.543C223.898 321.11 224.787 322.664 225.691 324.191ZM219.781 313.674L220.657 313.196C219.821 311.628 218.984 310.061 218.148 308.481L217.271 308.946C218.108 310.526 218.944 312.107 219.781 313.674ZM214.19 302.996L215.08 302.545C214.27 300.965 213.46 299.371 212.65 297.777L211.76 298.229C212.57 299.823 213.38 301.416 214.19 302.996ZM208.759 292.24L209.648 291.788L207.258 286.994L206.368 287.432L208.759 292.24ZM203.367 281.47L204.257 281.018C203.46 279.424 202.65 277.831 201.853 276.237L200.963 276.689C201.76 278.282 202.57 279.876 203.367 281.47ZM197.922 270.726L198.812 270.275C197.988 268.694 197.165 267.101 196.342 265.52L195.465 265.985C196.275 267.565 197.099 269.146 197.922 270.726ZM192.291 260.089L193.168 259.611C192.318 258.044 191.468 256.49 190.592 254.936L189.728 255.428C190.592 256.981 191.455 258.535 192.291 260.089ZM186.435 249.624L187.298 249.12C186.408 247.579 185.492 246.052 184.576 244.525L183.726 245.043C184.642 246.57 185.545 248.097 186.435 249.624ZM180.22 239.372L181.056 238.841C180.1 237.34 179.144 235.84 178.148 234.352L177.325 234.897C178.308 236.384 179.277 237.885 180.22 239.372ZM173.58 229.385L174.403 228.814C173.381 227.354 172.331 225.906 171.282 224.459L170.486 225.043C171.521 226.477 172.557 227.925 173.58 229.385ZM166.435 219.731L167.219 219.12C166.116 217.712 165.001 216.331 163.846 214.95L163.075 215.588C164.217 216.955 165.333 218.336 166.435 219.731ZM158.733 210.528L159.476 209.864C158.295 208.536 157.086 207.221 155.851 205.92L155.134 206.61C156.356 207.898 157.551 209.2 158.733 210.528ZM150.459 201.843L151.15 201.126C149.875 199.877 148.574 198.642 147.259 197.434L146.582 198.164C147.896 199.386 149.198 200.608 150.459 201.843ZM141.588 193.782L142.226 193.025C140.871 191.883 139.464 190.741 138.069 189.638L137.458 190.422C138.839 191.511 140.234 192.64 141.588 193.782ZM132.133 186.411L132.717 185.601C131.27 184.565 129.782 183.53 128.308 182.547L127.751 183.37C129.225 184.353 130.699 185.376 132.133 186.411ZM122.133 179.785L122.651 178.935C121.124 178.005 119.57 177.089 118.016 176.226L117.525 177.089C119.079 177.965 120.619 178.868 122.133 179.785Z" fill="#263238"/>
<path d="M111.403 173.822L111.854 172.932C111.071 172.534 110.274 172.135 109.464 171.75L109.026 172.64C109.823 173.038 110.619 173.424 111.403 173.822Z" fill="#263238"/>
<path d="M115.081 155.934L124.47 181.737L104.749 166.332L29.3722 138.988L115.081 155.934Z" fill="#FFC727"/>
<path d="M115.081 155.934L124.47 181.737L104.749 166.332L29.3722 138.988L115.081 155.934Z" fill="#FF917B"/>
<path d="M102.226 172.348L124.47 181.737L104.749 166.332L102.226 172.348Z" fill="#263238"/>
<path d="M104.75 166.332L29.3722 138.988L91.2039 199.333L104.75 166.332Z" fill="#FFC0B3"/>
<path d="M115.081 155.934L146.409 135.708L29.372 138.988L115.081 155.934Z" fill="#FFC0B3"/>
<path d="M285.517 289.677C285.517 289.677 293.631 362.079 299.196 409.077C300.205 417.563 301.121 425.226 301.905 431.467C302.954 439.913 303.737 445.796 304.096 447.709C304.415 449.342 304.309 455.849 304.242 464.999C304.202 470.139 304.189 476.115 304.255 482.529C304.548 507.296 304.481 540.124 304.415 560.708C304.362 572.434 304.813 580.19 304.813 580.19H360.841C360.841 580.19 361.001 572.647 361.134 560.708C361.492 528.331 361.705 463.671 358.318 429.475C353.617 381.973 338.491 289.677 338.491 289.677H285.517Z" fill="#EB9481"/>
<path d="M400.389 625.103C397.348 626.112 310.55 625.86 307.243 623.762C305.995 622.978 305.291 610.322 304.879 595.024C304.786 591.717 304.72 588.317 304.667 584.838C304.601 580.734 304.547 576.578 304.521 572.541C304.415 554.413 304.667 538.451 304.667 538.451H361.173L361.147 572.541L361.133 584.838L360.841 595.024C360.841 595.024 394.028 609.99 397.401 612.686C400.761 615.369 403.417 624.107 400.389 625.103Z" fill="#EB9481"/>
<path d="M400.389 625.103C397.348 626.112 310.55 625.86 307.243 623.762C305.995 622.978 305.291 610.322 304.879 595.024C304.786 591.717 304.72 588.317 304.667 584.838C304.601 580.734 304.547 576.578 304.521 572.541H361.147L361.133 584.838L360.841 595.024C360.841 595.024 394.028 609.99 397.401 612.686C400.761 615.369 403.417 624.107 400.389 625.103Z" fill="white"/>
<path d="M400.655 625.236C398.676 625.886 312.183 627.321 306.991 623.881C305.477 622.872 304.733 604.333 304.388 584.745H361.173L360.881 594.984C360.881 594.984 394.254 610.03 397.653 612.739C401.027 615.448 403.696 624.213 400.655 625.236Z" fill="#FF917B"/>
<path d="M399.406 621.743C384.772 621.345 325.729 621.106 311.241 621.823C311.121 621.823 311.121 621.902 311.241 621.916C325.729 622.633 384.785 622.394 399.406 621.995C399.725 621.969 399.725 621.743 399.406 621.743Z" fill="#263238"/>
<path d="M362.953 591.744C357.203 590.655 350.151 591.518 345.742 595.608C345.569 595.767 345.795 596.006 345.981 595.953C351.665 594.174 356.977 593.045 362.926 592.474C363.351 592.421 363.364 591.823 362.953 591.744Z" fill="#263238"/>
<path d="M367.109 594.253C361.359 593.164 354.308 594.028 349.899 598.118C349.726 598.277 349.952 598.516 350.138 598.463C355.821 596.684 361.133 595.555 367.083 594.984C367.495 594.944 367.521 594.333 367.109 594.253Z" fill="#263238"/>
<path d="M371.253 596.777C365.503 595.688 358.451 596.551 354.042 600.641C353.87 600.8 354.095 601.04 354.281 600.986C359.965 599.207 365.277 598.078 371.227 597.507C371.651 597.454 371.665 596.856 371.253 596.777Z" fill="#263238"/>
<path d="M375.409 599.287C369.659 598.198 362.607 599.061 358.198 603.151C358.026 603.31 358.252 603.549 358.437 603.496C364.121 601.717 369.433 600.588 375.383 600.017C375.794 599.977 375.821 599.366 375.409 599.287Z" fill="#263238"/>
<path d="M371.027 586.644C366.95 589.805 361.638 591.08 356.884 592.819C356.393 593.005 355.994 592.54 355.981 592.102C355.888 592.089 355.808 592.009 355.848 591.89C357.429 587.082 360.855 581.983 364.759 578.729C367.163 576.711 371.386 575.329 373.644 578.45C375.768 581.412 373.404 584.811 371.027 586.644ZM372.501 582.023C373.537 575.715 366.738 579.008 365.025 580.562C363.923 581.558 362.913 582.713 361.97 583.855C359.965 586.246 358.345 588.862 356.605 591.425C358.889 590.429 361.24 589.632 363.564 588.716C366.326 587.613 371.93 585.502 372.501 582.023Z" fill="#263238"/>
<path d="M336.646 583.072C338.053 579.486 342.476 579.778 345.317 581.12C349.912 583.297 354.494 587.388 357.23 591.637C357.296 591.744 357.243 591.836 357.15 591.876C357.243 592.301 356.977 592.859 356.459 592.806C351.413 592.301 345.955 592.394 341.214 590.349C338.452 589.167 335.318 586.458 336.646 583.072ZM348.969 590.482C351.44 590.787 353.923 590.973 356.38 591.372C354.056 589.327 351.825 587.188 349.288 585.382C348.08 584.519 346.818 583.656 345.503 582.965C343.458 581.89 336.048 580.389 338.624 586.246C340.045 589.473 346.008 590.11 348.969 590.482Z" fill="#263238"/>
<path d="M285.517 289.677C285.517 289.677 293.631 362.079 299.196 409.077C300.205 417.563 301.121 425.226 301.905 431.467C302.954 439.913 303.737 445.796 304.096 447.709C304.415 449.342 304.309 455.849 304.242 464.999C304.202 470.139 304.189 476.115 304.255 482.529C304.548 507.296 304.481 540.124 304.415 560.708H361.134C361.492 528.331 361.705 463.671 358.318 429.475C353.617 381.973 338.491 289.677 338.491 289.677H285.517Z" fill="#455A64"/>
<path d="M304.242 464.999C304.308 455.849 304.415 449.342 304.096 447.709C301.971 436.514 285.517 289.677 285.517 289.677H330.842L304.242 464.999Z" fill="#263238"/>
<path d="M108.15 447.244C108.15 447.244 110.049 448.014 113.462 449.316C116.436 450.471 120.58 452.025 125.613 453.844C126.25 454.056 126.901 454.295 127.578 454.535L127.937 454.667C128.348 454.813 128.76 454.96 129.172 455.106C163.673 467.35 231.587 488.492 262.636 477.761C293.499 467.097 337.681 289.092 338.491 289.677C338.531 289.703 263.233 289.677 263.233 289.677C263.233 289.677 249.236 325.785 261.175 348.507C262.277 350.605 234.442 424.734 217.603 422.702C204.456 421.109 167.79 407.351 144.656 400.233C143.355 399.834 142.093 399.449 140.885 399.077C139.411 398.626 138.003 398.188 136.675 397.789C136.648 397.776 136.635 397.776 136.609 397.763C133.78 396.899 131.35 396.142 129.437 395.558C126.37 394.615 124.604 394.071 124.604 394.071L108.15 447.244Z" fill="#EB9481"/>
<path d="M50.5278 470.988C50.4614 467.788 76.2909 384.921 79.2789 382.384C80.3945 381.415 92.6918 384.483 107.433 388.599C110.62 389.476 113.953 390.273 117.233 391.388C121.35 392.783 160.712 405.624 160.712 405.624L144.524 460.298L113.369 449.687L100.593 445.345L90.9521 442.065C90.9521 442.065 66.8622 469.368 63.3031 471.799C59.7308 474.215 50.5942 474.176 50.5278 470.988Z" fill="#EB9481"/>
<path d="M50.5277 470.988C50.4613 467.788 76.2909 384.921 79.2789 382.384C80.3945 381.415 92.6918 384.483 107.433 388.599C110.62 389.476 113.953 390.273 117.233 391.388C121.35 392.783 125.546 393.978 129.504 395.425C124.59 411.614 117.632 435.186 113.382 449.687L100.607 445.345L90.9654 442.065C90.9654 442.065 66.8754 469.368 63.3164 471.799C59.7308 474.215 50.5941 474.176 50.5277 470.988Z" fill="white"/>
<path d="M50.3286 471.201C50.2622 467.987 76.2379 384.655 79.2259 382.105C80.607 380.924 98.5615 385.704 117.393 391.162L100.66 445.424L90.9654 442.131C90.9654 442.131 66.7559 469.594 63.1571 472.038C59.5715 474.455 50.395 474.415 50.3286 471.201Z" fill="#FF917B"/>
<path d="M54.0341 471.055C58.7352 457.191 76.371 400.843 79.9566 386.78C79.9832 386.66 79.9035 386.647 79.8636 386.753C74.9102 400.392 57.7259 456.885 53.8083 470.988C53.7286 471.281 53.9411 471.347 54.0341 471.055Z" fill="#263238"/>
<path d="M93.4489 445.053C96.1846 439.873 97.4329 432.888 94.8301 427.47C94.7238 427.257 94.4316 427.403 94.4316 427.603C94.4449 433.552 93.9669 438.97 92.7584 444.814C92.6787 445.225 93.2497 445.424 93.4489 445.053Z" fill="#263238"/>
<path d="M89.8234 448.28C92.5591 443.1 93.8075 436.115 91.2046 430.697C91.0983 430.484 90.8062 430.631 90.8062 430.83C90.8195 436.779 90.3414 442.197 89.1329 448.041C89.0532 448.452 89.6242 448.651 89.8234 448.28Z" fill="#263238"/>
<path d="M86.198 451.507C88.9337 446.327 90.1953 439.342 87.5791 433.924C87.4729 433.711 87.1807 433.858 87.1807 434.057C87.194 440.006 86.7159 445.424 85.5074 451.268C85.4278 451.679 85.9988 451.879 86.198 451.507Z" fill="#263238"/>
<path d="M82.5725 454.72C85.3081 449.541 86.5565 442.556 83.9536 437.138C83.8474 436.925 83.5552 437.071 83.5552 437.271C83.5685 443.22 83.0904 448.638 81.8819 454.481C81.789 454.893 82.3733 455.092 82.5725 454.72Z" fill="#263238"/>
<path d="M94.3649 438.479C94.5641 438.28 94.8828 438.213 95.1484 438.28C95.2016 438.2 95.2812 438.147 95.3875 438.213C95.5203 438.306 95.6663 438.413 95.7991 438.519C95.8257 438.532 95.8523 438.545 95.8788 438.572C95.9319 438.612 95.9851 438.652 96.0382 438.692C96.2374 438.838 96.4366 438.997 96.6358 439.17C98.2559 440.471 99.7964 442.051 101.178 443.751C101.802 444.521 102.399 445.331 102.944 446.155C103.9 447.602 104.723 449.103 105.347 450.604C106.556 453.499 106.636 457.934 102.997 459.169C99.5441 460.338 96.9944 457.084 95.932 454.269C94.6305 450.79 94.4313 447.005 94.3383 443.273C94.3251 443.26 94.3251 443.247 94.3383 443.233C94.3251 443.207 94.3251 443.193 94.3383 443.18C94.2852 441.746 94.272 440.325 94.1923 438.931C94.179 438.731 94.2454 438.585 94.3649 438.479ZM95.9851 443.831C96.0382 444.734 96.1046 445.624 96.171 446.527C96.3967 449.488 96.7553 455.477 99.916 457.044C105.653 459.9 104.498 452.436 103.515 450.338C102.891 448.983 102.081 447.682 101.284 446.434C101.058 446.075 100.819 445.73 100.58 445.385C100.567 445.371 100.553 445.345 100.54 445.332C99.0926 443.273 97.4724 441.361 95.8921 439.409C95.8124 439.316 95.7327 439.209 95.6663 439.116L95.6265 439.077C95.6265 439.116 95.6398 439.17 95.6398 439.209C95.6531 439.302 95.6663 439.382 95.6663 439.475C95.8124 440.923 95.9054 442.357 95.9851 443.791V443.831Z" fill="#263238"/>
<path d="M94.3385 438.532C94.3518 438.519 94.3518 438.492 94.3651 438.479C95.0025 436.939 95.6134 435.332 96.2508 433.738C97.5257 430.511 98.9467 427.311 101.178 424.694C102.798 422.782 105.494 420.949 107.977 421.693C108.495 421.839 109 422.091 109.478 422.477C112.492 424.867 110.912 429.024 108.787 431.334C107.353 432.901 105.587 434.375 103.674 435.637C101.457 437.124 99.0264 438.346 96.636 439.17C96.3836 439.263 96.1446 439.342 95.8923 439.409C95.8126 439.435 95.7462 439.462 95.6665 439.475C95.6399 439.488 95.6001 439.502 95.5736 439.502C95.4541 439.541 95.3478 439.581 95.2283 439.608C95.0955 439.648 95.0291 439.555 95.0158 439.462C94.5776 439.422 94.1393 439.01 94.3385 438.532ZM96.0384 438.691C98.5881 437.138 101.164 435.69 103.555 433.871C103.847 433.645 104.139 433.419 104.431 433.194C105.321 432.49 106.184 431.759 106.981 430.963C108.455 429.488 111.549 423.924 107.446 423.419C107.008 423.353 106.476 423.366 105.866 423.433C102.373 423.831 99.9958 429.342 98.7741 432.051C97.7913 434.229 96.9281 436.434 95.879 438.572C95.8391 438.678 95.786 438.771 95.7329 438.877C95.8392 438.811 95.9321 438.758 96.0384 438.691Z" fill="#263238"/>
<path d="M125.613 453.844C126.25 454.056 126.901 454.295 127.578 454.535L127.937 454.667C128.348 454.813 128.76 454.96 129.172 455.106C163.673 467.35 231.587 488.492 262.636 477.761C293.499 467.097 337.681 289.092 338.491 289.677C338.531 289.703 263.233 289.677 263.233 289.677C263.233 289.677 249.236 325.785 261.175 348.507C262.277 350.605 234.442 424.734 217.603 422.702C204.456 421.109 167.79 407.351 144.656 400.233C143.355 399.834 142.093 399.449 140.885 399.077L125.613 453.844Z" fill="#455A64"/>
<path d="M340.005 220.647C339.979 221.019 339.7 221.364 339.328 221.364C338.504 221.311 337.508 221.232 336.38 221.152C334.667 213.489 332.555 207.288 333.02 209.651C333.684 213.078 333.896 217.912 333.498 220.926C332.196 220.82 329.208 220.554 327.695 220.421C327.004 207.248 325.264 197.301 325.078 200.276C324.348 212.241 323.232 215.959 321.958 219.93C307.974 218.668 289.647 216.783 276.434 215.136C275.783 207.819 275.398 199.93 275.092 200.435C272.795 204.193 271.6 209.957 271.002 214.432C266.792 213.874 263.446 213.343 261.427 212.905C261.427 212.905 261.175 206.796 261.281 204.804C261.507 199.744 262.662 194.685 264.588 190.037C266.593 185.256 269.555 181.192 272.397 177.009C272.423 176.969 272.436 176.943 272.463 176.916C272.463 176.903 272.476 176.903 272.49 176.876C274.442 173.981 275.969 171.153 277.138 168.098C277.151 168.085 277.164 168.058 277.164 168.032C277.988 165.867 278.625 163.596 279.13 161.06C280.816 152.375 286.354 145.429 294.335 144.194C310.656 131.565 324.441 139.785 327.455 151.658C327.748 152.813 328 154.128 328.226 155.562V155.602C329.089 160.887 329.62 167.647 330.218 172.906C330.204 172.919 330.218 172.932 330.218 172.932C330.204 172.945 330.204 172.959 330.231 172.985V172.999C330.536 175.508 330.855 177.647 331.24 179.121C333.803 188.828 341.559 195.216 340.005 220.647Z" fill="#263238"/>
<path d="M290.696 146.173C285.305 148.284 281.706 151.976 280.139 158.271C279.223 161.936 278.545 165.548 276.779 168.882C274.96 172.321 272.41 175.004 269.794 177.66C265.65 181.896 262.583 186.252 261.255 192.467C259.913 198.775 259.276 206.345 260.551 212.586C260.564 212.626 260.604 212.613 260.604 212.573C259.714 206.305 260.697 197.938 262.476 191.75C264.429 184.951 268.638 181.099 273.034 176.345C276.527 172.574 278.997 168.191 280.285 162.932C281.055 159.825 281.414 156.518 282.967 153.703C284.827 150.343 287.921 148.47 290.975 146.864C291.387 146.651 291.108 146.014 290.696 146.173Z" fill="#263238"/>
<path d="M338.518 190.17C335.569 184.698 332.382 179.931 331.054 173.463C329.846 167.567 329.487 161.472 328.239 155.588C328.212 155.496 328.093 155.509 328.106 155.615C329.859 166.013 329.208 176.159 334.188 185.389C336.897 190.409 339.633 195.083 341.12 200.86C342.674 206.916 342.913 213.038 342.289 219.372C342.262 219.598 342.528 219.625 342.581 219.412C344.719 209.306 343.152 198.762 338.518 190.17Z" fill="#263238"/>
<path d="M315.958 217.539L315.958 217.539C312.507 214.193 310.034 209.489 309.677 205.948C309.498 204.177 309.856 202.806 310.742 201.991C311.623 201.18 313.173 200.787 315.694 201.31C325.886 203.429 336.227 206.06 345.353 208.383C348.196 209.106 350.922 209.8 353.488 210.439C358.884 211.782 363.583 212.884 367.184 213.508C368.984 213.819 370.525 214.014 371.75 214.058C372.362 214.08 372.907 214.064 373.371 214.002C373.83 213.941 374.242 213.832 374.569 213.644C374.569 213.644 374.569 213.644 374.57 213.644L374.321 213.21C377.889 211.168 385.69 203.552 393.4 196.024C400.581 189.012 407.684 182.078 411.213 179.798L315.958 217.539ZM315.958 217.539C321.768 223.178 335.51 231.303 349.773 237.343C356.896 240.359 364.123 242.844 370.525 244.236C376.949 245.633 382.46 245.91 386.2 244.597L386.2 244.597C388.644 243.741 392.297 241.352 396.53 238.062C400.747 234.785 405.488 230.656 410.097 226.372C419.329 217.79 427.973 208.641 430.8 204.509L315.958 217.539Z" fill="#FFD5CC" stroke="#3D3D3D"/>
<path d="M429.215 176.9L429.215 176.9L429.222 176.898C429.619 176.791 429.987 176.846 430.305 177.029C430.606 177.201 430.832 177.47 431.008 177.744C431.315 178.224 431.545 178.856 431.735 179.377C431.757 179.439 431.779 179.499 431.8 179.557C431.852 179.693 431.874 179.855 431.887 179.997C431.901 180.152 431.908 180.333 431.911 180.53C431.916 180.785 431.914 181.088 431.913 181.418C431.912 181.593 431.911 181.776 431.911 181.963L431.911 181.966C431.898 183.737 431.919 186.096 432.462 187.912C432.732 188.817 433.116 189.528 433.637 189.97C434.135 190.394 434.808 190.614 435.775 190.447C437 190.235 437.964 189.329 438.716 187.913C439.466 186.498 439.96 184.652 440.27 182.731C440.89 178.888 440.748 174.911 440.574 173.882C440.535 173.67 440.41 173.349 440.176 172.938C439.946 172.533 439.627 172.067 439.229 171.573C438.152 170.238 436.547 168.733 434.705 167.646C432.858 166.556 430.826 165.914 428.871 166.215L428.871 166.215C424.056 166.955 419.541 169.56 415.274 172.021C414.588 172.417 413.908 172.809 413.234 173.189L411.437 188.973C411.905 188.644 412.533 188.202 413.274 187.682C414.93 186.52 417.148 184.968 419.4 183.406C421.652 181.844 423.939 180.272 425.73 179.07C426.625 178.469 427.399 177.959 427.984 177.589C428.276 177.404 428.525 177.252 428.721 177.14C428.894 177.04 429.079 176.939 429.215 176.9Z" fill="#EF5839" stroke="#3D3D3D"/>
<path d="M429.215 176.9L429.215 176.9L429.222 176.898C429.619 176.791 429.987 176.846 430.305 177.029C430.606 177.201 430.832 177.47 431.008 177.744C431.315 178.224 431.545 178.856 431.735 179.377C431.757 179.439 431.779 179.499 431.8 179.557C431.852 179.693 431.874 179.855 431.887 179.997C431.9 180.143 431.907 180.313 431.911 180.498C434.475 177.174 437.145 173.689 438.981 171.272C437.913 170.017 436.41 168.652 434.705 167.646C432.859 166.556 430.826 165.914 428.872 166.215L428.871 166.215C424.056 166.955 419.541 169.56 415.274 172.021C414.588 172.417 413.908 172.809 413.234 173.189L411.437 188.973C411.905 188.644 412.533 188.202 413.274 187.682C414.93 186.52 417.148 184.968 419.4 183.406C421.652 181.844 423.939 180.272 425.73 179.07C426.625 178.469 427.399 177.959 427.984 177.589C428.277 177.404 428.525 177.252 428.721 177.14C428.894 177.04 429.079 176.939 429.215 176.9Z" fill="#EF5839" stroke="#3D3D3D"/>
<path d="M419.047 218.403C419.778 217.38 427.321 209.678 433.018 203.875C432.221 197.646 432.102 185.043 432.049 181.71C431.358 178.005 431.995 169.705 432.367 169.692C433.058 169.679 435.501 169.665 438.476 169.386C442.394 169.028 447.214 168.258 450.109 166.584C451.69 165.668 452.672 164.499 452.672 162.972C452.646 160.236 446.67 160.037 439.605 159.174C429.99 157.992 418.105 157.049 414.28 160.595C408.623 165.841 406.113 177.182 404.984 180.475C403.842 183.769 396.83 192.772 396.83 192.772C402.022 210.847 418.078 219.757 419.047 218.403Z" fill="#FFDCD4"/>
<path d="M468.717 161.65L468.167 159.736C468.143 159.745 468.118 159.753 468.092 159.762C467.719 159.888 467.172 160.072 466.473 160.306C465.076 160.773 463.075 161.437 460.657 162.223C455.822 163.794 449.32 165.854 442.654 167.808C436.04 169.746 426.035 174.251 417.645 178.428C413.456 180.514 409.68 182.513 406.947 184.061C405.579 184.835 404.478 185.493 403.719 185.991C403.706 185.999 403.693 186.008 403.68 186.016C404.467 185.869 405.545 185.623 406.854 185.294C409.804 184.553 413.889 183.4 418.375 182.042C427.352 179.324 437.901 175.794 444.162 173.11C450.441 170.418 456.673 167.506 461.336 165.267C463.667 164.148 465.605 163.196 466.96 162.525C467.638 162.19 468.17 161.924 468.532 161.743C468.6 161.709 468.662 161.678 468.717 161.65Z" fill="#263238" stroke="#3D3D3D"/>
<path d="M469.261 161.793L468.418 159.467L460.539 161.77L461.992 165.392L469.261 161.793Z" fill="#EF5839" stroke="#3D3D3D"/>
<path d="M477.371 157.959C478.025 157.104 478.512 156.235 478.854 155.522C477.936 156.008 476.583 156.467 474.736 156.487L474.735 156.487C471.997 156.511 470.409 157.633 469.295 158.952L470.241 161.561C473.622 161.686 475.901 159.879 477.371 157.959Z" fill="#EF5839" stroke="#3D3D3D"/>
<path d="M479.841 154.627C479.798 154.659 479.751 154.692 479.703 154.728C479.521 154.861 479.305 155.018 479.09 155.164C478.389 155.639 477.439 156.175 476.314 156.273L476.313 156.273C476.145 156.287 475.947 156.422 475.803 156.864C475.664 157.291 475.633 157.865 475.712 158.401C475.794 158.959 475.975 159.344 476.14 159.492C476.204 159.549 476.239 159.55 476.263 159.547C476.306 159.542 476.423 159.508 476.611 159.323C477.627 158.319 478.659 156.885 479.316 155.711C479.551 155.29 479.729 154.92 479.841 154.627ZM479.39 154.337C478.657 154.873 477.578 155.661 476.271 155.774L480.242 153.835C480.064 153.845 479.774 154.056 479.39 154.337Z" fill="#EF5839" stroke="#3D3D3D"/>
<path d="M433.031 203.861C434.984 201.883 436.737 200.143 437.972 199.001C442.805 194.486 444.027 190.395 444.651 185.947C445.262 181.498 455.05 172.188 447.693 171.485C440.322 170.794 434.506 184.353 432.792 183.37C432.474 183.184 432.235 182.573 432.075 181.71C432.102 185.03 432.235 197.633 433.031 203.861Z" fill="#FFDCD4"/>
<mask id="path-63-inside-1_220_837" fill="white">
<path d="M431.809 179.307C431.823 179.134 431.929 179.16 431.956 179.36C432.022 179.971 432.367 182.719 433.005 182.719C434.107 182.719 437.985 177.222 440.017 175.216C440.123 175.11 440.282 175.243 440.176 175.349C439.605 175.854 437.892 178.257 437.453 178.828C436.617 179.931 434.306 183.503 432.912 183.503C431.969 183.49 431.743 179.984 431.809 179.307Z"/>
</mask>
<path d="M431.809 179.307C431.823 179.134 431.929 179.16 431.956 179.36C432.022 179.971 432.367 182.719 433.005 182.719C434.107 182.719 437.985 177.222 440.017 175.216C440.123 175.11 440.282 175.243 440.176 175.349C439.605 175.854 437.892 178.257 437.453 178.828C436.617 179.931 434.306 183.503 432.912 183.503C431.969 183.49 431.743 179.984 431.809 179.307Z" fill="#EF5839"/>
<path d="M431.809 179.307L432.807 179.383L432.806 179.394L432.805 179.404L431.809 179.307ZM431.956 179.36L432.947 179.227L432.948 179.24L432.95 179.252L431.956 179.36ZM440.017 175.216L440.724 175.923L440.719 175.928L440.017 175.216ZM440.176 175.349L440.883 176.056L440.861 176.078L440.838 176.098L440.176 175.349ZM437.453 178.828L436.657 178.224L436.66 178.22L437.453 178.828ZM432.912 183.503V184.503L432.898 184.503L432.912 183.503ZM430.812 179.23C430.822 179.112 430.853 178.887 430.998 178.666C431.075 178.547 431.213 178.389 431.437 178.286C431.679 178.175 431.943 178.166 432.179 178.24C432.584 178.368 432.763 178.686 432.818 178.796C432.895 178.949 432.93 179.102 432.947 179.227L430.964 179.492C430.968 179.517 430.98 179.592 431.029 179.69C431.056 179.744 431.203 180.029 431.576 180.147C431.796 180.217 432.045 180.208 432.272 180.104C432.481 180.008 432.605 179.862 432.671 179.762C432.791 179.578 432.804 179.415 432.807 179.383L430.812 179.23ZM432.95 179.252C432.982 179.545 433.08 180.339 433.241 181.046C433.323 181.408 433.41 181.69 433.49 181.862C433.531 181.952 433.545 181.955 433.514 181.921C433.484 181.89 433.313 181.719 433.005 181.719V183.719C432.537 183.719 432.215 183.463 432.045 183.279C431.873 183.093 431.755 182.877 431.673 182.699C431.506 182.336 431.383 181.893 431.291 181.491C431.104 180.671 430.996 179.786 430.961 179.468L432.95 179.252ZM433.005 181.719C432.8 181.719 432.754 181.811 432.957 181.666C433.109 181.557 433.316 181.377 433.575 181.12C434.09 180.608 434.716 179.889 435.395 179.078C436.714 177.503 438.253 175.552 439.314 174.505L440.719 175.928C439.748 176.886 438.332 178.686 436.929 180.362C436.247 181.176 435.57 181.957 434.984 182.538C434.693 182.828 434.4 183.093 434.121 183.292C433.893 183.456 433.485 183.719 433.005 183.719V181.719ZM439.309 174.509C439.748 174.07 440.401 174.089 440.816 174.435C441.016 174.602 441.187 174.868 441.209 175.204C441.232 175.56 441.08 175.859 440.883 176.056L439.469 174.642C439.325 174.786 439.193 175.029 439.213 175.333C439.231 175.618 439.375 175.838 439.536 175.971C439.871 176.251 440.391 176.256 440.724 175.923L439.309 174.509ZM440.838 176.098C440.766 176.162 440.6 176.345 440.348 176.656C440.111 176.947 439.838 177.302 439.563 177.666C439.04 178.36 438.458 179.161 438.247 179.437L436.66 178.22C436.887 177.924 437.381 177.239 437.966 176.462C438.246 176.09 438.536 175.714 438.795 175.395C439.038 175.095 439.3 174.788 439.514 174.6L440.838 176.098ZM438.25 179.433C437.891 179.906 437.028 181.175 436.161 182.218C435.717 182.753 435.225 183.288 434.729 183.698C434.278 184.071 433.635 184.503 432.912 184.503V182.503C432.885 182.503 433.054 182.488 433.455 182.157C433.81 181.863 434.21 181.436 434.623 180.94C435.469 179.922 436.18 178.853 436.657 178.224L438.25 179.433ZM432.898 184.503C432.44 184.496 432.097 184.271 431.876 184.046C431.665 183.83 431.521 183.571 431.42 183.346C431.216 182.891 431.085 182.334 430.997 181.824C430.822 180.81 430.769 179.668 430.814 179.209L432.805 179.404C432.783 179.622 432.81 180.572 432.968 181.484C433.046 181.936 433.143 182.301 433.245 182.528C433.297 182.644 433.325 182.667 433.306 182.647C433.278 182.619 433.148 182.506 432.926 182.503L432.898 184.503Z" fill="#3D3D3D" mask="url(#path-63-inside-1_220_837)"/>
<path d="M355.304 208.018C355.304 208.018 352.223 217.646 349.421 226.411C347.243 233.343 345.224 239.731 345.078 240.408C345.078 240.408 329.434 232.068 314.893 220.249C302.117 209.877 303.459 201.179 310.856 199.837C311.891 199.651 313.033 199.612 314.282 199.731C324.494 200.687 355.304 208.018 355.304 208.018Z" fill="#FF9C88"/>
<path d="M334.202 210.023H335.251C336.313 210.023 337.177 209.16 337.177 208.098C337.177 207.407 337.748 206.836 338.438 206.836H339.541V206.172H338.438C337.376 206.172 336.513 207.035 336.513 208.098C336.513 208.788 335.942 209.359 335.251 209.359H334.202V210.023Z" fill="#FFDCD4"/>
<path d="M346.287 222.36L346.751 221.895L346.008 221.152C345.264 220.395 344.029 220.395 343.285 221.152C342.807 221.63 341.971 221.63 341.493 221.152L340.709 220.368L340.244 220.833L341.028 221.617C341.758 222.347 343.02 222.347 343.75 221.617C344.242 221.125 345.038 221.125 345.543 221.617L346.287 222.36Z" fill="#FFDCD4"/>
<path d="M349.434 226.411C347.256 233.343 345.238 239.731 345.092 240.408C345.092 240.408 329.448 232.068 314.906 220.249C302.131 209.877 303.472 201.179 310.869 199.837L349.434 226.411Z" fill="#ED7057"/>
<path d="M240.87 396.049H358.491L357.813 391.826L343.086 299.69L342.887 298.481L335.968 255.162C335.968 255.162 342.05 245.959 340.204 237.646C339.275 233.436 329.527 216.623 324.428 209.811C322.316 206.969 320.377 204.671 318.969 203.357C313.312 198.084 305.716 197.367 300.258 198.164H300.245C299.342 198.297 298.399 198.536 297.429 198.868C289.621 201.551 280.019 210.687 274.88 224.525C273.087 229.332 271.308 234.936 269.555 241.138V241.152C269.475 241.457 269.395 241.762 269.302 242.068C264.163 260.514 259.249 283.993 255.013 307.034C252.609 320.061 250.418 332.956 248.519 344.709C248.439 345.227 248.36 345.745 248.28 346.263C243.698 374.669 240.87 396.049 240.87 396.049Z" fill="#FF9C88"/>
<path d="M299.355 294.736H300.404C301.466 294.736 302.33 293.873 302.33 292.811C302.33 292.12 302.901 291.549 303.591 291.549H304.693V290.885H303.591C302.529 290.885 301.666 291.748 301.666 292.811C301.666 293.501 301.094 294.072 300.404 294.072H299.355V294.736Z" fill="white"/>
<path d="M282.861 353.766H283.91C284.973 353.766 285.836 352.903 285.836 351.84C285.836 351.15 286.407 350.579 287.097 350.579H288.2V349.915H287.097C286.035 349.915 285.172 350.778 285.172 351.84C285.172 352.531 284.601 353.102 283.91 353.102H282.861V353.766Z" fill="white"/>
<path d="M262.317 297.924H263.366C264.428 297.924 265.291 297.06 265.291 295.998C265.291 295.307 265.862 294.736 266.553 294.736H267.655V294.072H266.553C265.491 294.072 264.627 294.936 264.627 295.998C264.627 296.688 264.056 297.26 263.366 297.26H262.317V297.924Z" fill="white"/>
<path d="M314.826 267.897H315.875C316.937 267.897 317.801 267.034 317.801 265.972C317.801 265.281 318.372 264.71 319.062 264.71H320.165V264.046H319.062C318 264.046 317.137 264.909 317.137 265.972C317.137 266.662 316.566 267.233 315.875 267.233H314.826V267.897Z" fill="white"/>
<path d="M334.201 243.064H335.251C336.313 243.064 337.176 242.201 337.176 241.138C337.176 240.448 337.747 239.877 338.438 239.877H339.54V239.213H338.438C337.375 239.213 336.512 240.076 336.512 241.138C336.512 241.829 335.941 242.4 335.251 242.4H334.201V243.064Z" fill="white"/>
<path d="M282.503 267.22H283.552C284.614 267.22 285.477 266.357 285.477 265.295C285.477 264.604 286.048 264.033 286.739 264.033H287.841V263.369H286.739C285.677 263.369 284.813 264.232 284.813 265.295C284.813 265.985 284.242 266.556 283.552 266.556H282.503V267.22Z" fill="white"/>
<path d="M301.626 233.436H302.675C303.737 233.436 304.601 232.573 304.601 231.51C304.601 230.82 305.172 230.249 305.862 230.249H306.964V229.585H305.862C304.8 229.585 303.937 230.448 303.937 231.51C303.937 232.201 303.365 232.772 302.675 232.772H301.626V233.436Z" fill="white"/>
<path d="M322.767 319.437H323.817C324.879 319.437 325.742 318.574 325.742 317.512C325.742 316.821 326.313 316.25 327.004 316.25H328.106V315.586H327.004C325.941 315.586 325.078 316.449 325.078 317.512C325.078 318.202 324.507 318.773 323.817 318.773H322.767V319.437Z" fill="white"/>
<path d="M295.942 374.788H296.991C298.053 374.788 298.916 373.925 298.916 372.863C298.916 372.172 299.487 371.601 300.178 371.601H301.28V370.937H300.178C299.116 370.937 298.252 371.8 298.252 372.863C298.252 373.553 297.681 374.124 296.991 374.124H295.942V374.788Z" fill="white"/>
<path d="M261.108 393.632H262.157C263.22 393.632 264.083 392.769 264.083 391.707C264.083 391.016 264.654 390.445 265.345 390.445H266.447V389.781H265.345C264.282 389.781 263.419 390.644 263.419 391.707C263.419 392.397 262.848 392.968 262.157 392.968H261.108V393.632Z" fill="white"/>
<path d="M334.308 380.499H335.357C336.419 380.499 337.283 379.635 337.283 378.573C337.283 377.882 337.854 377.311 338.544 377.311H339.646V376.647H338.544C337.482 376.647 336.619 377.511 336.619 378.573C336.619 379.264 336.048 379.835 335.357 379.835H334.308V380.499Z" fill="white"/>
<path d="M304.866 344.457H305.915C306.978 344.457 307.841 343.593 307.841 342.531C307.841 341.84 308.412 341.269 309.102 341.269H310.205V340.605H309.102C308.04 340.605 307.177 341.469 307.177 342.531C307.177 343.222 306.606 343.793 305.915 343.793H304.866V344.457Z" fill="white"/>
<path d="M336.977 349.742H338.026C339.088 349.742 339.952 348.879 339.952 347.816C339.952 347.126 340.523 346.555 341.213 346.555H342.315V345.891H341.213C340.151 345.891 339.288 346.754 339.288 347.816C339.288 348.507 338.717 349.078 338.026 349.078H336.977V349.742Z" fill="white"/>
<path d="M290.085 320.141H291.134C292.197 320.141 293.06 319.278 293.06 318.215C293.06 317.525 293.631 316.954 294.322 316.954H295.424V316.29H294.322C293.259 316.29 292.396 317.153 292.396 318.215C292.396 318.906 291.825 319.477 291.134 319.477H290.085V320.141Z" fill="white"/>
<path d="M249.024 359.941H250.073C251.135 359.941 251.998 359.078 251.998 358.016C251.998 357.325 252.57 356.754 253.26 356.754H254.362V356.09H253.26C252.198 356.09 251.334 356.953 251.334 358.016C251.334 358.706 250.763 359.277 250.073 359.277H249.024V359.941Z" fill="white"/>
<path d="M323.192 282.891L323.657 282.426L322.914 281.682C322.183 280.952 320.922 280.952 320.191 281.682C319.7 282.173 318.903 282.173 318.398 281.682L317.615 280.899L317.15 281.363L317.934 282.147C318.691 282.904 319.912 282.904 320.656 282.147C321.147 281.656 321.944 281.656 322.449 282.147L323.192 282.891Z" fill="white"/>
<path d="M335.118 262.957L335.583 262.492L334.839 261.749C334.108 261.018 332.847 261.018 332.116 261.749C331.625 262.24 330.828 262.24 330.324 261.749L329.54 260.965L329.075 261.43L329.859 262.214C330.616 262.971 331.838 262.971 332.581 262.214C333.059 261.736 333.896 261.736 334.361 262.214L335.118 262.957Z" fill="white"/>
<path d="M274.946 317.618L275.411 317.153L274.667 316.409C273.91 315.652 272.689 315.666 271.945 316.409C271.467 316.887 270.63 316.887 270.166 316.409L269.382 315.626L268.917 316.091L269.701 316.874C270.431 317.604 271.693 317.604 272.423 316.874C272.914 316.383 273.711 316.383 274.203 316.874L274.946 317.618Z" fill="white"/>
<path d="M305.052 252.971L305.517 252.506L304.773 251.762C304.043 251.032 302.768 251.032 302.051 251.762C301.572 252.24 300.736 252.24 300.271 251.762L299.487 250.979L299.023 251.444L299.806 252.227C300.537 252.957 301.798 252.957 302.529 252.227C303.02 251.736 303.817 251.736 304.308 252.227L305.052 252.971Z" fill="white"/>
<path d="M311.971 211.444L312.436 210.979L311.692 210.236C310.935 209.479 309.713 209.479 308.969 210.236C308.478 210.727 307.681 210.727 307.177 210.236L306.393 209.452L305.928 209.917L306.712 210.7C307.456 211.444 308.691 211.457 309.434 210.7C309.926 210.209 310.722 210.209 311.227 210.7L311.971 211.444Z" fill="white"/>
<path d="M325.543 234.1L326.008 233.635L325.264 232.891C324.507 232.134 323.285 232.134 322.542 232.891C322.05 233.383 321.254 233.383 320.749 232.891L319.965 232.108L319.501 232.573L320.284 233.356C321.041 234.113 322.263 234.113 323.007 233.356C323.498 232.865 324.295 232.865 324.799 233.356L325.543 234.1Z" fill="white"/>
<path d="M303.286 275.321H303.95V274.272C303.95 273.209 303.087 272.346 302.024 272.346C301.334 272.346 300.763 271.775 300.763 271.085V269.982H300.099V271.085C300.099 272.147 300.962 273.01 302.024 273.01C302.715 273.01 303.286 273.581 303.286 274.272V275.321Z" fill="white"/>
<path d="M310.391 327.777H311.055V326.728C311.055 325.665 310.191 324.802 309.129 324.802C308.439 324.802 307.867 324.231 307.867 323.541V322.438H307.203V323.541C307.203 324.603 308.067 325.466 309.129 325.466C309.82 325.466 310.391 326.037 310.391 326.728V327.777Z" fill="white"/>
<path d="M273.432 366.807H274.096V365.758C274.096 364.695 273.233 363.832 272.171 363.832C271.48 363.832 270.909 363.261 270.909 362.571V361.468H270.245V362.571C270.245 363.633 271.108 364.496 272.171 364.496C272.861 364.496 273.432 365.067 273.432 365.758V366.807Z" fill="white"/>
<path d="M247.895 392.251H248.559V391.202C248.559 390.14 247.696 389.277 246.634 389.277C245.943 389.277 245.372 388.706 245.372 388.015V386.913H244.708V388.015C244.708 389.077 245.571 389.941 246.634 389.941C247.324 389.941 247.895 390.512 247.895 391.202V392.251Z" fill="white"/>
<path d="M257.217 318.574H257.881V317.525C257.881 316.462 257.018 315.599 255.956 315.599C255.265 315.599 254.694 315.028 254.694 314.338V313.235H254.03V314.338C254.03 315.4 254.893 316.263 255.956 316.263C256.646 316.263 257.217 316.834 257.217 317.525V318.574Z" fill="white"/>
<path d="M339.315 329.649H339.979V328.6C339.979 327.538 339.115 326.675 338.053 326.675C337.362 326.675 336.791 326.104 336.791 325.413V324.311H336.127V325.413C336.127 326.476 336.991 327.339 338.053 327.339C338.743 327.339 339.315 327.91 339.315 328.6V329.649Z" fill="white"/>
<path d="M337.721 282.585H338.385V281.536C338.385 280.474 337.522 279.61 336.459 279.61C335.769 279.61 335.198 279.039 335.198 278.349V277.247H334.534V278.349C334.534 279.411 335.397 280.274 336.459 280.274C337.15 280.274 337.721 280.845 337.721 281.536V282.585Z" fill="white"/>
<path d="M320.55 251.988H321.214V250.939C321.214 249.876 320.351 249.013 319.288 249.013C318.598 249.013 318.027 248.442 318.027 247.752V246.649H317.363V247.752C317.363 248.814 318.226 249.677 319.288 249.677C319.979 249.677 320.55 250.248 320.55 250.939V251.988Z" fill="white"/>
<path d="M327.044 221.205H327.708V220.156C327.708 219.093 326.844 218.23 325.782 218.23C325.091 218.23 324.52 217.659 324.52 216.969V215.866H323.856V216.969C323.856 218.031 324.72 218.894 325.782 218.894C326.472 218.894 327.044 219.465 327.044 220.156V221.205Z" fill="white"/>
<path d="M325.158 299.291H325.822V298.242C325.822 297.18 324.959 296.317 323.896 296.317C323.206 296.317 322.635 295.746 322.635 295.055V293.953H321.971V295.055C321.971 296.117 322.834 296.981 323.896 296.981C324.587 296.981 325.158 297.552 325.158 298.242V299.291Z" fill="white"/>
<path d="M283.764 305.652H284.428V304.603C284.428 303.541 283.565 302.678 282.503 302.678C281.812 302.678 281.241 302.107 281.241 301.416V300.314H280.577V301.416C280.577 302.479 281.44 303.342 282.503 303.342C283.193 303.342 283.764 303.913 283.764 304.603V305.652Z" fill="white"/>
<path d="M322.024 358.772H322.688V357.723C322.688 356.661 321.825 355.798 320.762 355.798C320.072 355.798 319.501 355.227 319.501 354.536V353.434H318.837V354.536C318.837 355.599 319.7 356.462 320.762 356.462C321.453 356.462 322.024 357.033 322.024 357.723V358.772Z" fill="white"/>
<path d="M351.346 372.863H352.01V371.813C352.01 370.751 351.147 369.888 350.085 369.888C349.394 369.888 348.823 369.317 348.823 368.626V367.524H348.159V368.626C348.159 369.689 349.022 370.552 350.085 370.552C350.775 370.552 351.346 371.123 351.346 371.813V372.863Z" fill="white"/>
<path d="M313.06 388.825H313.724V387.776C313.724 386.714 312.86 385.85 311.798 385.85C311.107 385.85 310.536 385.279 310.536 384.589V383.487H309.872V384.589C309.872 385.651 310.736 386.514 311.798 386.514C312.489 386.514 313.06 387.085 313.06 387.776V388.825Z" fill="white"/>
<path d="M269.913 335.851H270.577V334.802C270.577 333.74 269.714 332.876 268.652 332.876C267.961 332.876 267.39 332.305 267.39 331.615V330.513H266.726V331.615C266.726 332.677 267.589 333.54 268.652 333.54C269.342 333.54 269.913 334.112 269.913 334.802V335.851Z" fill="white"/>
<path d="M288.306 283.661L288.771 283.196L287.987 282.412C287.23 281.656 286.008 281.656 285.265 282.412C284.773 282.904 283.976 282.904 283.485 282.412L282.741 281.669L282.277 282.134L283.02 282.877C283.777 283.634 284.986 283.634 285.743 282.877C286.234 282.386 287.031 282.386 287.535 282.877L288.306 283.661Z" fill="white"/>
<path d="M311.918 307.405L312.382 306.941L311.599 306.157C310.842 305.4 309.62 305.4 308.876 306.157C308.398 306.635 307.562 306.635 307.084 306.157L306.34 305.413L305.875 305.878L306.619 306.622C307.349 307.352 308.611 307.352 309.341 306.622C309.833 306.131 310.643 306.131 311.134 306.622L311.918 307.405Z" fill="white"/>
<path d="M328.266 339.623L328.73 339.158L327.947 338.374C327.19 337.631 325.968 337.631 325.225 338.374C324.733 338.866 323.936 338.866 323.432 338.374L322.688 337.631L322.223 338.096L322.967 338.839C323.724 339.596 324.946 339.596 325.689 338.839C326.181 338.348 326.978 338.348 327.482 338.839L328.266 339.623Z" fill="white"/>
<path d="M321.2 373.102L321.665 372.637L320.882 371.853C320.125 371.11 318.903 371.11 318.159 371.853C317.668 372.345 316.871 372.345 316.38 371.853L315.636 371.11L315.171 371.574L315.915 372.318C316.645 373.048 317.907 373.048 318.637 372.318C319.129 371.827 319.925 371.827 320.43 372.318L321.2 373.102Z" fill="white"/>
<path d="M298.2 392.69L298.665 392.225L297.881 391.441C297.124 390.684 295.916 390.684 295.159 391.441C294.667 391.933 293.87 391.933 293.379 391.441L292.635 390.698L292.171 391.162L292.914 391.906C293.645 392.636 294.906 392.636 295.637 391.906C296.128 391.415 296.925 391.415 297.416 391.906L298.2 392.69Z" fill="white"/>
<path d="M289.541 336.303L290.006 335.838L289.222 335.054C288.465 334.311 287.244 334.311 286.5 335.054C286.009 335.546 285.212 335.546 284.72 335.054L283.977 334.311L283.512 334.776L284.256 335.519C284.986 336.25 286.248 336.25 286.978 335.519C287.469 335.028 288.266 335.028 288.771 335.519L289.541 336.303Z" fill="white"/>
<path d="M283.685 380.326L284.149 379.861L283.366 379.078C282.635 378.347 281.374 378.347 280.643 379.078C280.152 379.569 279.355 379.569 278.864 379.078L278.12 378.334L277.655 378.799L278.399 379.542C279.156 380.299 280.378 380.299 281.122 379.542C281.6 379.064 282.436 379.064 282.901 379.542L283.685 380.326Z" fill="white"/>
<path d="M259.116 377.577L259.581 377.112L258.798 376.329C258.041 375.585 256.819 375.585 256.075 376.329C255.597 376.807 254.774 376.807 254.296 376.329L253.552 375.585L253.087 376.05L253.831 376.793C254.561 377.524 255.836 377.524 256.553 376.793C257.045 376.302 257.841 376.302 258.346 376.793L259.116 377.577Z" fill="white"/>
<path d="M257.151 336.303L257.616 335.838L256.832 335.054C256.102 334.324 254.84 334.324 254.11 335.054C253.618 335.546 252.822 335.546 252.317 335.054L251.573 334.311L251.109 334.776L251.852 335.519C252.609 336.263 253.831 336.263 254.575 335.519C255.066 335.028 255.863 335.028 256.354 335.519L257.151 336.303Z" fill="white"/>
<path d="M267.762 349.636L268.227 349.171L267.443 348.388C266.686 347.631 265.464 347.631 264.721 348.388C264.243 348.866 263.406 348.866 262.941 348.388L262.197 347.644L261.733 348.109L262.476 348.852C263.233 349.609 264.442 349.609 265.199 348.852C265.69 348.361 266.487 348.361 266.992 348.852L267.762 349.636Z" fill="white"/>
<path d="M304.401 359.755L304.866 359.29L304.083 358.507C303.352 357.776 302.091 357.776 301.36 358.507C300.869 358.998 300.072 358.998 299.567 358.507L298.824 357.763L298.359 358.228L299.103 358.972C299.86 359.715 301.081 359.715 301.825 358.972C302.316 358.48 303.113 358.48 303.605 358.972L304.401 359.755Z" fill="white"/>
<path d="M338.132 364.377L338.597 363.912L337.814 363.128C337.083 362.398 335.822 362.398 335.091 363.128C334.6 363.62 333.803 363.62 333.312 363.128L332.568 362.385L332.103 362.849L332.847 363.593C333.577 364.324 334.839 364.324 335.569 363.593C336.047 363.115 336.884 363.115 337.362 363.593L338.132 364.377Z" fill="white"/>
<path d="M332.396 394.522L332.86 394.057L332.077 393.274C331.32 392.53 330.098 392.53 329.354 393.274C328.863 393.765 328.066 393.765 327.562 393.274L326.818 392.53L326.353 392.995L327.097 393.739C327.854 394.496 329.076 394.496 329.819 393.739C330.311 393.247 331.107 393.247 331.612 393.739L332.396 394.522Z" fill="white"/>
<path d="M353.657 390.578L354.122 390.113L353.338 389.33C352.581 388.586 351.359 388.586 350.616 389.33C350.124 389.821 349.328 389.821 348.823 389.33L348.079 388.586L347.614 389.051L348.358 389.795C349.115 390.538 350.337 390.538 351.08 389.795C351.572 389.303 352.369 389.303 352.873 389.795L353.657 390.578Z" fill="white"/>
<path d="M340.828 308.162L341.293 307.698L340.509 306.914C339.752 306.157 338.531 306.157 337.787 306.914C337.296 307.405 336.499 307.405 335.994 306.914L335.251 306.17L334.786 306.635L335.529 307.379C336.26 308.109 337.521 308.109 338.252 307.379C338.743 306.888 339.54 306.888 340.031 307.379L340.828 308.162Z" fill="white"/>
<path d="M240.87 396.049H260.272L297.429 198.868C289.621 201.551 280.019 210.687 274.88 224.525C273.087 229.332 271.307 234.936 269.554 241.138V241.152C269.475 241.457 269.395 241.762 269.302 242.068C264.163 260.514 259.249 283.993 255.013 307.034C252.609 320.061 250.418 332.956 248.519 344.709C248.439 345.227 248.36 345.745 248.28 346.263C243.698 374.669 240.87 396.049 240.87 396.049Z" fill="#263238"/>
<path d="M230.313 356.608C227.909 362.026 229.224 371.149 224.854 370.632C220.95 370.167 220.658 363.752 220.658 363.752C220.658 363.752 218.666 371.083 214.616 369.383C210.565 367.683 211.667 360.605 211.667 360.605C211.667 360.605 210.286 366.78 206.355 364.802C202.438 362.823 202.278 356.621 202.278 356.621C202.278 356.621 200.672 358.108 198.534 355.466C195.466 351.681 197.803 341.416 200.3 336.356C202.796 331.283 215.665 314.577 217.683 312.053L250.352 327.764C250.352 327.764 250.086 338.826 249.263 344.417C248.44 350.008 240.618 367.67 236.103 366.023C231.587 364.377 237.324 352 238.068 348.653C238.812 345.32 238.161 344.576 236.66 345.824C235.638 346.648 231.375 354.204 230.313 356.608Z" fill="#FFDCD4"/>
<path d="M220.777 363.447C220.99 354.496 222.637 350.605 227.524 343.261C227.617 343.115 227.431 342.943 227.311 343.089C221.88 349.848 219.104 354.417 220.339 363.46C220.406 363.899 220.777 363.872 220.777 363.447Z" fill="#263238"/>
<path d="M211.734 360.977C212.77 351.694 214.51 347.471 219.065 339.397C219.131 339.277 218.945 339.158 218.865 339.277C213.739 346.82 211.083 351.442 211.269 360.857C211.282 361.282 211.681 361.402 211.734 360.977Z" fill="#263238"/>
<path d="M202.345 356.528C203.991 347.617 205.704 342.903 211.136 335.625C211.269 335.453 211.03 335.254 210.884 335.413C204.629 342.279 202.451 348.148 202.092 356.448C202.052 357.02 202.238 357.086 202.345 356.528Z" fill="#263238"/>
<path d="M285.785 208.444L285.785 208.444C286.409 207.794 286.926 207.456 287.33 207.33C287.705 207.214 287.986 207.276 288.233 207.469C288.508 207.684 288.782 208.097 289.011 208.762C289.237 209.42 289.403 210.275 289.498 211.312C289.879 215.472 289.091 222.262 286.935 229.968M285.785 208.444L248.891 332.385M285.785 208.444C273.211 221.501 257.207 245.435 243.761 267.329C230.32 289.217 219.471 309.006 217.205 313.743L216.754 313.527M285.785 208.444L216.754 313.527M286.935 229.968L287.416 230.103L286.935 229.968ZM286.935 229.968C283.012 243.962 273.853 268.003 265.433 289.322C261.907 298.25 258.512 306.694 255.69 313.715C255.144 315.074 254.62 316.378 254.12 317.623C251.043 325.286 248.883 330.708 248.413 332.238M248.413 332.238L248.891 332.385M248.413 332.238C248.413 332.238 248.413 332.238 248.413 332.238L248.891 332.385M248.413 332.238C248.377 332.357 248.291 332.467 248.071 332.555C247.835 332.65 247.477 332.704 246.982 332.69C245.995 332.662 244.62 332.371 242.974 331.854C239.692 330.825 235.46 328.942 231.359 326.706C227.256 324.468 223.313 321.893 220.598 319.489C219.237 318.285 218.21 317.146 217.618 316.135C217.021 315.115 216.924 314.33 217.205 313.743L216.754 313.527M248.891 332.385C247.444 337.086 213.659 319.995 216.754 313.527" fill="#FFD5CC" stroke="#3D3D3D"/>
<path d="M296.872 211.298C295.198 220.86 283.817 252.745 283.817 252.745L262.875 247.725L262.503 247.645L249.157 244.445C249.157 244.445 274.734 214.592 286.739 205.375C298.704 196.185 298.757 200.528 296.872 211.298Z" fill="#FF9C88"/>
<path d="M262.981 243.064H264.03C265.093 243.064 265.956 242.201 265.956 241.138C265.956 240.448 266.527 239.877 267.218 239.877H268.32V239.213H267.218C266.155 239.213 265.292 240.076 265.292 241.138C265.292 241.829 264.721 242.4 264.03 242.4H262.981V243.064Z" fill="white"/>
<path d="M281.308 226.942L281.772 226.477L281.029 225.733C280.272 224.976 279.05 224.99 278.306 225.733C277.828 226.212 276.992 226.212 276.527 225.733L275.743 224.95L275.279 225.415L276.062 226.198C276.792 226.929 278.054 226.929 278.784 226.198C279.276 225.707 280.073 225.707 280.564 226.198L281.308 226.942Z" fill="white"/>
<path d="M286.434 242.214H287.098V241.165C287.098 240.102 286.234 239.239 285.172 239.239C284.481 239.239 283.91 238.668 283.91 237.978V236.875H283.246V237.978C283.246 239.04 284.11 239.903 285.172 239.903C285.863 239.903 286.434 240.474 286.434 241.165V242.214Z" fill="#ED7057"/>
<path d="M294.03 218.536H294.694V217.487C294.694 216.424 293.831 215.561 292.768 215.561C292.078 215.561 291.507 214.99 291.507 214.299V213.197H290.843V214.299C290.843 215.362 291.706 216.225 292.768 216.225C293.459 216.225 294.03 216.796 294.03 217.487V218.536Z" fill="#ED7057"/>
<path d="M285.543 206.305C285.265 205.694 302.197 220.913 316.167 218.217C323.126 216.862 324.441 201.338 323.617 201.179C311.891 198.841 300.749 192.44 285.543 206.305Z" fill="#EB9481"/>
<path d="M298.837 200.714C299.355 202.042 307.203 210.036 313.458 208.828C315.49 208.43 313.843 197.235 313.843 197.235L313.91 196.385L314.839 184.419L299.966 177.633L297.828 176.757C297.828 176.757 297.788 180.05 297.788 184.14C297.788 184.326 297.788 184.526 297.788 184.725C297.788 184.951 297.775 185.176 297.775 185.389C297.761 186 297.761 186.624 297.761 187.248C297.761 187.726 297.761 188.178 297.788 188.682C297.801 189.187 297.814 189.665 297.828 190.17C298.014 195.11 298.624 200.156 298.837 200.714Z" fill="#FFDCD5"/>
<path d="M297.775 184.154C302.423 192.905 310.324 195.601 313.897 196.385L314.826 184.419L299.953 177.633L297.814 176.757C297.828 176.77 297.788 180.064 297.775 184.154Z" fill="#263238"/>
<path d="M327.947 163.636C332.82 184.127 321.094 189.36 316.685 190.409C312.675 191.365 298.89 194.087 291.931 174.207C284.972 154.327 292.954 145.589 302.011 142.933C311.068 140.263 323.073 143.145 327.947 163.636Z" fill="#FFDCD5"/>
<path d="M323.432 161.418C322.94 161.445 322.476 161.379 321.984 161.352C321.426 161.325 320.975 161.352 320.51 161.007C320.258 160.821 320.205 160.369 320.364 160.104C320.736 159.493 321.426 159.373 322.104 159.373C322.834 159.387 323.392 159.572 323.95 160.051C324.481 160.502 324.082 161.379 323.432 161.418Z" fill="#263238"/>
<path d="M309.116 164.234C309.594 164.101 310.019 163.888 310.47 163.703C310.988 163.49 311.426 163.384 311.745 162.906C311.918 162.653 311.825 162.202 311.599 162.003C311.055 161.551 310.351 161.644 309.727 161.87C309.036 162.109 308.571 162.481 308.199 163.105C307.827 163.703 308.491 164.42 309.116 164.234Z" fill="#263238"/>
<path d="M312.754 169.015C312.728 168.961 312.661 169.108 312.675 169.161C312.98 170.555 313.113 172.215 311.918 172.932C311.878 172.959 311.904 173.025 311.944 173.012C313.458 172.494 313.272 170.289 312.754 169.015Z" fill="#263238"/>
<path d="M311.214 167.78C308.916 168.032 309.594 172.613 311.732 172.374C313.83 172.149 313.139 167.567 311.214 167.78Z" fill="#263238"/>
<path d="M310.351 168.165C309.992 168.483 309.66 169.001 309.195 169.121C308.651 169.254 308.146 168.842 307.721 168.43C307.681 168.39 307.641 168.43 307.655 168.497C307.774 169.373 308.239 170.223 309.208 170.21C310.085 170.196 310.59 169.333 310.669 168.417C310.683 168.258 310.497 168.032 310.351 168.165Z" fill="#263238"/>
<path d="M321.546 167.049C321.546 166.996 321.666 167.102 321.679 167.155C321.838 168.576 322.25 170.183 323.605 170.475C323.644 170.489 323.658 170.555 323.605 170.555C321.998 170.568 321.467 168.417 321.546 167.049Z" fill="#263238"/>
<path d="M322.595 165.389C324.853 164.898 325.676 169.453 323.591 169.904C321.533 170.356 320.709 165.801 322.595 165.389Z" fill="#263238"/>
<path d="M323.604 165.509C324.003 165.681 324.441 166.053 324.879 166.013C325.384 165.96 325.663 165.402 325.902 164.871C325.928 164.818 325.968 164.845 325.981 164.911C326.167 165.774 326.034 166.73 325.238 167.049C324.507 167.341 323.803 166.691 323.445 165.867C323.365 165.708 323.445 165.442 323.604 165.509Z" fill="#263238"/>
<path d="M315.079 179.798C315.45 180.103 315.849 180.515 316.367 180.515C316.871 180.502 317.429 180.223 317.867 179.997C317.907 179.971 317.96 180.024 317.934 180.063C317.615 180.648 316.871 181.073 316.207 181.02C315.557 180.98 315.172 180.449 314.959 179.878C314.919 179.798 315.025 179.745 315.079 179.798Z" fill="#263238"/>
<path d="M320.165 173.729C320.165 173.729 320.802 175.801 320.962 176.797C320.975 176.89 320.736 176.969 320.404 177.049C320.391 177.062 320.377 177.062 320.364 177.062C318.651 177.62 316.778 177.301 315.477 176.04C315.397 175.947 315.504 175.827 315.61 175.88C317.084 176.637 318.571 176.651 320.138 176.425C320.165 176.133 318.943 172.919 319.089 172.879C319.62 172.746 320.762 172.945 321.44 173.025C320.245 168.683 318.372 164.566 317.243 160.223C317.203 160.064 317.429 159.984 317.496 160.117C319.766 164.287 321.254 169.267 322.608 173.716C322.768 174.247 320.59 173.835 320.165 173.729Z" fill="#263238"/>
<path d="M320.205 176.292C320.205 176.292 319.607 177.846 318.438 178.682C318 178.988 317.509 179.2 316.924 179.214C315.729 179.24 315.411 178.218 315.371 177.275C315.331 176.504 315.49 175.787 315.49 175.787C315.49 175.787 317.535 176.863 320.205 176.292Z" fill="#263238"/>
<path d="M318.438 178.682C318 178.988 317.509 179.2 316.925 179.214C315.729 179.24 315.411 178.218 315.371 177.275C316.593 177.062 318 177.54 318.438 178.682Z" fill="#FF9BBC"/>
<path d="M292.104 174.273C294.455 173.742 299.567 166.173 297.867 154.659C297.867 154.659 298.678 165.11 298.16 166.744C297.628 168.377 301.015 162.494 299.767 153.185C299.767 153.185 305.504 156.04 310.085 156.545C314.667 157.049 317.336 156.571 317.588 156.199C317.854 155.828 311.081 154.858 309.009 153.145C309.009 153.145 321.532 156.638 326.964 156.16C327.588 156.106 326.234 143.225 317.044 139.174C307.867 135.124 295.69 143.132 292.728 147.129C292.728 147.129 288.678 148.404 285.185 155.283C281.679 162.175 289.567 174.858 292.104 174.273Z" fill="#263238"/>
<path d="M295.556 175.004C295.556 175.004 290.045 169.174 287.336 171.232C284.627 173.291 289.434 182.215 293.1 182.985C296.752 183.755 297.535 180.395 297.535 180.395L295.556 175.004Z" fill="#FFDCD5"/>
<path d="M288.784 173.755C288.731 173.755 288.731 173.835 288.784 173.848C291.36 174.473 292.967 176.531 294.215 178.735C293.365 177.939 292.303 177.593 291.227 178.629C291.174 178.682 291.241 178.775 291.307 178.749C292.277 178.39 293.02 178.457 293.804 179.147C294.361 179.639 294.8 180.303 295.238 180.913C295.384 181.113 295.756 180.94 295.636 180.701C295.623 180.688 295.623 180.661 295.61 180.648C295.198 177.554 292.157 173.57 288.784 173.755Z" fill="#263238"/>
<path opacity="0.29" d="M475.209 158.098C482.287 175.283 501.835 245.003 489.033 292.107C477.878 333.182 451.969 354.669 440.203 361.614C422.912 371.84 404.532 378.334 405.276 382.225C406.02 386.116 424.147 377.697 424.97 379.197C425.794 380.698 385.516 419.462 313.896 427.377C203.208 439.608 138.202 399.808 128.627 398.095C119.066 396.381 164.736 451.56 198.281 464.428C205.996 467.39 177.896 459.793 158.839 448.373C151.681 444.083 171.389 501.904 237.271 516.194C249.94 518.943 222.583 518.783 212.809 517.641C203.035 516.499 241.003 543.816 339.686 535.954C416.471 529.832 488.011 469.926 517.399 403.858C520.706 396.421 527.519 401.282 529.696 396.023C534.344 384.801 532.193 363.102 534.464 358.812C536.735 354.523 544.172 358.812 546.443 347.445C548.713 336.077 547.478 301.974 529.086 247.287C526.908 240.806 529.909 242.997 533.84 248.788C537.771 254.578 542.419 259.73 546.801 259.504C551.197 259.292 548.86 243.223 530.321 213.609C498.542 162.813 468.781 142.494 475.209 158.098Z" fill="#FFE0D9"/>
<path d="M399.499 389.024C399.313 383.606 378.397 386.275 380.283 393.54C382.169 400.804 399.752 396.381 399.499 389.024Z" fill="#FFC0B3"/>
<path d="M204.111 515.915C202.823 520.988 184.536 517.455 185.984 510.616C187.444 503.764 205.651 509.806 204.111 515.915Z" fill="#EF927F"/>
<path d="M551.104 265.68C554.596 265.228 556.987 272.745 552.79 274.139C548.594 275.547 546.536 266.277 551.104 265.68Z" fill="#EAA192"/>
<path d="M123.328 394.695C120.699 398.108 102.399 386.886 109.982 381.588C115.267 377.869 125.958 391.282 123.328 394.695Z" fill="#FF917B"/>
<path d="M282.98 495.317L290.231 496.659L291.852 504.308L293.472 496.659L300.736 495.317L293.512 493.551L291.852 486.327L290.205 493.551L282.98 495.317Z" fill="#C1C1C1"/>
<path d="M456.935 384.602L464.186 385.943L465.806 393.593L467.426 385.943L474.69 384.602L467.466 382.836L465.806 375.612L464.159 382.836L456.935 384.602Z" fill="#C1C1C1"/>
<path d="M493.747 183.105L500.998 184.446L502.618 192.082L504.238 184.446L511.489 183.091L504.265 181.338L502.618 174.114L500.971 181.338L493.747 183.105Z" fill="#C1C1C1"/>
<path d="M146.17 417.191L150.233 417.948L151.136 422.224L152.039 417.948L156.09 417.191L152.053 416.208L151.136 412.171L150.207 416.208L146.17 417.191Z" fill="#C1C1C1"/>
<path d="M369.473 439.608L373.523 440.365L374.426 444.628L375.329 440.365L379.38 439.608L375.356 438.625L374.426 434.588L373.497 438.625L369.473 439.608Z" fill="#C1C1C1"/>
<path d="M197.006 491.347L201.056 492.104L201.959 496.38L202.875 492.104L206.926 491.347L202.889 490.364L201.959 486.327L201.043 490.364L197.006 491.347Z" fill="#C1C1C1"/>
<path d="M326.99 522.263L331.054 523.006L331.957 527.282L332.86 523.006L336.911 522.263L332.874 521.267L331.957 517.229L331.028 521.267L326.99 522.263Z" fill="#C1C1C1"/>
<path d="M483.548 417.191L487.612 417.948L488.515 422.224L489.418 417.948L493.468 417.191L489.431 416.208L488.515 412.171L487.585 416.208L483.548 417.191Z" fill="#C1C1C1"/>
<path d="M488.515 297.392L492.565 298.136L493.468 302.412L494.385 298.136L498.435 297.392L494.398 296.396L493.468 292.359L492.552 296.396L488.515 297.392Z" fill="#C1C1C1"/>
<path d="M270.073 450.046C271.586 450.046 271.586 452.397 270.073 452.397C268.572 452.397 268.559 450.046 270.073 450.046Z" fill="#C1C1C1"/>
<path d="M519.165 228.788C520.679 228.788 520.679 231.138 519.165 231.138C517.651 231.138 517.638 228.788 519.165 228.788Z" fill="#C1C1C1"/>
<path d="M196.182 453.207C197.696 453.207 197.696 455.557 196.182 455.557C194.682 455.557 194.669 453.207 196.182 453.207Z" fill="#C1C1C1"/>
<path d="M511.49 393.54C513.003 393.54 513.003 395.89 511.49 395.89C509.976 395.89 509.976 393.54 511.49 393.54Z" fill="#C1C1C1"/>
<path d="M539.63 321.602C540.705 321.602 540.705 323.262 539.63 323.262C538.554 323.262 538.554 321.602 539.63 321.602Z" fill="#C1C1C1"/>
<path d="M354.055 471.4C355.131 471.4 355.131 473.06 354.055 473.06C352.979 473.06 352.979 471.4 354.055 471.4Z" fill="#C1C1C1"/>
<path d="M436.059 468.452C437.135 468.452 437.135 470.112 436.059 470.112C434.983 470.112 434.983 468.452 436.059 468.452Z" fill="#C1C1C1"/>
<path d="M295.079 461.613C297.974 461.613 297.987 466.115 295.079 466.115C292.17 466.115 292.17 461.613 295.079 461.613Z" fill="#C1C1C1"/>
<path d="M425.409 460.803C428.304 460.803 428.317 465.305 425.409 465.305C422.514 465.305 422.514 460.803 425.409 460.803Z" fill="#C1C1C1"/>
<path d="M101.284 318.972C111.682 341.933 128.401 341.429 132.996 346.967C135.466 349.968 140.074 358.148 140.074 358.148L164.988 350.194C164.988 350.194 163.992 340.871 164.284 336.98C164.802 329.809 178.746 320.526 173.899 295.799C170.725 279.544 151.057 258.562 124.683 266.981C98.3221 275.387 94.4577 303.886 101.284 318.972Z" stroke="#222221" stroke-miterlimit="10"/>
<path d="M154.535 311.74L159.825 353.733L158.508 353.899L153.217 311.906L154.535 311.74Z" fill="black"/>
<path d="M127.475 320.18L147.549 357.437L146.38 358.067L126.306 320.81L127.475 320.18Z" fill="black"/>
<path d="M143.368 329.53C143.779 329.53 144.191 329.477 144.603 329.344C146.555 328.72 148.029 326.542 148.759 323.209C148.786 323.063 148.826 322.916 148.852 322.757C149.729 323.262 150.605 323.474 151.376 323.235C155.107 322.04 154.151 313.873 154.111 313.528L153.447 313.607C153.46 313.687 154.39 321.575 151.176 322.598C150.565 322.797 149.782 322.558 148.985 322.027C149.543 318.282 149.065 313.767 147.338 312.186C146.741 311.642 146.037 311.496 145.293 311.721C143.647 312.253 143.129 313.86 143.859 316.157C144.55 318.335 146.356 320.964 148.268 322.359C148.228 322.598 148.175 322.824 148.135 323.063C147.75 324.855 146.741 327.976 144.43 328.707C142.876 329.198 140.937 328.481 138.959 326.675C138.786 326.515 138.627 326.369 138.467 326.197C139.41 324.138 139.41 321.27 138.627 318.8C137.75 316.037 136.157 314.643 134.483 315.174C133.819 315.387 133.381 315.891 133.222 316.648C132.73 318.919 134.789 323.288 137.684 326.329C137.206 327.179 136.502 327.843 135.506 328.162C133.222 328.892 129.464 324.085 128.215 322.173L127.657 322.531C127.857 322.824 132.478 329.822 135.705 328.786C136.768 328.441 137.578 327.737 138.149 326.794C138.268 326.914 138.401 327.033 138.52 327.153C139.729 328.308 141.508 329.53 143.368 329.53ZM135.134 315.745C136.435 315.745 137.458 317.432 137.963 319.012C138.587 320.951 138.76 323.687 137.963 325.705C135.333 322.85 133.408 318.813 133.846 316.808C133.952 316.29 134.231 315.971 134.656 315.825C134.802 315.772 134.975 315.745 135.134 315.745ZM145.931 312.292C146.263 312.292 146.581 312.425 146.86 312.691C148.228 313.939 148.839 317.857 148.348 321.588C146.728 320.274 145.107 317.99 144.457 315.971C144.098 314.856 143.766 312.917 145.453 312.372C145.639 312.319 145.785 312.292 145.931 312.292Z" fill="black"/>
<path d="M136.821 357.991L167.562 348.177L169.48 354.186L138.739 364L136.821 357.991Z" fill="#D7D7D7"/>
<path d="M139.051 364.963L169.792 355.15L171.71 361.159L140.969 370.972L139.051 364.963Z" fill="#D7D7D7"/>
<path d="M141.284 371.948L172.025 362.134L173.943 368.143L143.202 377.957L141.284 371.948Z" fill="#D7D7D7"/>
<path d="M119.259 246.601L122.436 256.572L121.171 256.975L117.994 247.004L119.259 246.601Z" fill="white"/>
<path d="M148.482 245.194L149.78 245.477L147.552 255.702L146.254 255.419L148.482 245.194Z" fill="white"/>
<path d="M175.803 258.832L176.785 259.726L169.742 267.467L168.76 266.573L175.803 258.832Z" fill="white"/>
<path d="M192.679 284.353L193.083 285.618L183.114 288.801L182.71 287.536L192.679 284.353Z" fill="white"/>
<path d="M184.239 312.633L194.464 314.861L194.182 316.158L183.957 313.93L184.239 312.633Z" fill="white"/>
<path d="M103.549 338.536L104.531 339.43L97.4896 347.171L96.5073 346.277L103.549 338.536Z" fill="white"/>
<path d="M90.2353 317.233L90.6392 318.498L80.6706 321.681L80.2667 320.416L90.2353 317.233Z" fill="white"/>
<path d="M79.0977 289.865L89.3228 292.092L89.0402 293.389L78.8151 291.162L79.0977 289.865Z" fill="white"/>
<path d="M93.3764 262.885L101.111 269.934L100.216 270.916L92.4819 263.867L93.3764 262.885Z" fill="white"/>
</svg>
