<svg width="67" height="68" viewBox="0 0 67 68" fill="none" xmlns="http://www.w3.org/2000/svg">
<g clip-path="url(#clip0_220_1102)">
<path d="M64.9968 19.2763C65.0042 16.7445 64.5048 14.2365 63.5277 11.8973C62.5505 9.55811 61.115 7.43427 59.3043 5.64869C57.5029 3.85248 55.3599 2.42835 52.9995 1.45874C50.639 0.489125 48.1079 -0.00669745 45.5528 -6.80675e-06C41.5506 -0.0118159 37.6437 1.21081 34.3738 3.4984C34.0446 3.72715 33.7246 3.96811 33.4076 4.21821C33.0907 4.46832 32.7922 4.72452 32.4845 4.98988C32.2476 5.20033 32.0168 5.41993 31.7891 5.64564L29.9213 7.49702L29.0782 8.33273L28.2382 9.16539L18.0562 19.2763L28.2535 29.3842L29.0936 30.2168L29.9367 31.0525C30.1798 30.839 30.4167 30.6164 30.6506 30.3846L32.4968 28.5546L31.6568 27.7219L23.1395 19.2763L30.8321 11.6512L32.5122 9.98586L34.3585 8.15583C34.5923 7.92403 34.8293 7.70136 35.0754 7.49091C35.3831 7.22556 35.6908 6.97546 35.9985 6.7406C36.3062 6.50575 36.6539 6.26784 36.9893 6.05434C39.5479 4.42358 42.5264 3.55842 45.5682 3.56246C47.6497 3.5591 49.7115 3.96314 51.6351 4.75138C53.5587 5.53962 55.3064 6.69656 56.778 8.15583C59.7453 11.1045 61.4118 15.0993 61.4118 19.2641C61.4118 23.4289 59.7453 27.4237 56.778 30.3724C55.3071 31.8327 53.5596 32.9906 51.6358 33.7794C49.7121 34.5682 47.6501 34.9724 45.5682 34.9688C42.5261 34.9716 39.5477 34.1054 36.9893 32.4739L36.7555 32.7026L34.8846 34.557C34.7216 34.7187 34.5523 34.8804 34.3861 35.0359C37.6571 37.3241 41.5648 38.5477 45.5682 38.5374C48.1231 38.5444 50.6541 38.0491 53.0145 37.08C55.375 36.1109 57.518 34.6874 59.3196 32.8917C61.1262 31.1063 62.558 28.9839 63.5324 26.647C64.5068 24.31 65.0045 21.8049 64.9968 19.2763Z" fill="white"/>
<path d="M32.5001 9.99501L33.3371 10.8277L34.1771 11.6603L41.8698 19.2855L34.1771 26.9106L33.3371 27.7402L32.5001 28.5729L30.6539 30.4029C30.42 30.6347 30.1831 30.8573 29.94 31.0709C29.6323 31.3332 29.3246 31.5833 29.0169 31.8181C28.7091 32.053 28.3676 32.2909 28.0291 32.5044C25.4695 34.1357 22.4902 35.0018 19.4472 34.9993C17.3659 35.0024 15.3045 34.5979 13.3813 33.8091C11.4581 33.0203 9.71109 31.8628 8.24048 30.4029C5.27312 27.4542 3.6067 23.4594 3.6067 19.2946C3.6067 15.1298 5.27312 11.135 8.24048 8.18634C9.71124 6.72689 11.4584 5.5698 13.3816 4.78153C15.3047 3.99327 17.366 3.58934 19.4472 3.59296C22.4899 3.58937 25.4693 4.45448 28.0291 6.08485L30.1308 4.00471C30.2969 3.84001 30.4631 3.67836 30.6323 3.52281C27.3606 1.23385 23.4517 0.0101777 19.4472 0.0213516C16.8927 0.0139911 14.3621 0.509216 12.0021 1.47833C9.64214 2.44743 7.49966 3.87116 5.69882 5.66699C3.88873 7.4496 2.45311 9.57019 1.47495 11.9062C0.496791 14.2421 -0.00449803 16.7471 8.15737e-05 19.2763C-0.00734414 21.8084 0.492277 24.3167 1.46997 26.656C2.44767 28.9952 3.88399 31.1189 5.69574 32.9039C7.49658 34.6998 9.63906 36.1235 11.9991 37.0926C14.359 38.0617 16.8896 38.5569 19.4441 38.5496C24.2725 38.5632 28.9308 36.7828 32.5001 33.5597L32.8416 33.2547L33.0232 33.0808C33.0786 33.0259 33.1371 32.971 33.1924 32.9131L35.0633 31.0617L46.9438 19.2763L36.7434 9.16844L35.9033 8.33579L35.0633 7.50312C34.8171 7.71357 34.5802 7.93623 34.3463 8.16803L32.5001 9.99501Z" fill="#262E3A"/>
</g>
<path d="M14.036 60.648V63H4.052V45.72H6.86V60.648H14.036ZM23.1524 50.568C24.0564 50.568 24.8724 50.716 25.6004 51.012C26.3364 51.308 26.9604 51.728 27.4724 52.272C27.9924 52.816 28.3924 53.476 28.6724 54.252C28.9524 55.028 29.0924 55.9 29.0924 56.868C29.0924 57.836 28.9524 58.708 28.6724 59.484C28.3924 60.26 27.9924 60.924 27.4724 61.476C26.9604 62.02 26.3364 62.44 25.6004 62.736C24.8724 63.032 24.0564 63.18 23.1524 63.18C22.2404 63.18 21.4164 63.032 20.6804 62.736C19.9524 62.44 19.3284 62.02 18.8084 61.476C18.2884 60.924 17.8884 60.26 17.6084 59.484C17.3284 58.708 17.1884 57.836 17.1884 56.868C17.1884 55.9 17.3284 55.028 17.6084 54.252C17.8884 53.476 18.2884 52.816 18.8084 52.272C19.3284 51.728 19.9524 51.308 20.6804 51.012C21.4164 50.716 22.2404 50.568 23.1524 50.568ZM23.1524 61.164C24.2564 61.164 25.0764 60.796 25.6124 60.06C26.1564 59.316 26.4284 58.256 26.4284 56.88C26.4284 55.504 26.1564 54.444 25.6124 53.7C25.0764 52.948 24.2564 52.572 23.1524 52.572C22.0324 52.572 21.2004 52.948 20.6564 53.7C20.1124 54.444 19.8404 55.504 19.8404 56.88C19.8404 58.256 20.1124 59.316 20.6564 60.06C21.2004 60.796 22.0324 61.164 23.1524 61.164ZM38.4856 56.772C39.2856 56.772 39.8856 56.568 40.2856 56.16C40.6856 55.752 40.8856 55.22 40.8856 54.564C40.8856 53.892 40.6856 53.36 40.2856 52.968C39.8856 52.576 39.2856 52.38 38.4856 52.38C37.6936 52.38 37.0936 52.576 36.6856 52.968C36.2856 53.36 36.0856 53.892 36.0856 54.564C36.0856 54.884 36.1376 55.18 36.2416 55.452C36.3456 55.724 36.4976 55.96 36.6976 56.16C36.8976 56.352 37.1456 56.504 37.4416 56.616C37.7456 56.72 38.0936 56.772 38.4856 56.772ZM42.0736 63.6C42.0736 63.328 41.9936 63.112 41.8336 62.952C41.6816 62.784 41.4736 62.656 41.2096 62.568C40.9456 62.472 40.6376 62.404 40.2856 62.364C39.9336 62.316 39.5576 62.284 39.1576 62.268C38.7656 62.244 38.3616 62.224 37.9456 62.208C37.5376 62.184 37.1416 62.144 36.7576 62.088C36.3736 62.288 36.0576 62.528 35.8096 62.808C35.5696 63.088 35.4496 63.412 35.4496 63.78C35.4496 64.02 35.5096 64.244 35.6296 64.452C35.7576 64.66 35.9496 64.84 36.2056 64.992C36.4696 65.144 36.8016 65.264 37.2016 65.352C37.6096 65.44 38.0976 65.484 38.6656 65.484C39.8016 65.484 40.6536 65.308 41.2216 64.956C41.7896 64.604 42.0736 64.152 42.0736 63.6ZM44.6656 51.204V52.164C44.6656 52.484 44.4736 52.68 44.0896 52.752L42.8656 52.956C43.0736 53.42 43.1776 53.936 43.1776 54.504C43.1776 55.104 43.0576 55.648 42.8176 56.136C42.5856 56.624 42.2616 57.04 41.8456 57.384C41.4296 57.728 40.9336 57.992 40.3576 58.176C39.7816 58.36 39.1576 58.452 38.4856 58.452C38.2296 58.452 37.9776 58.44 37.7296 58.416C37.4896 58.384 37.2536 58.344 37.0216 58.296C36.7896 58.432 36.6176 58.576 36.5056 58.728C36.3936 58.88 36.3376 59.036 36.3376 59.196C36.3376 59.46 36.4536 59.656 36.6856 59.784C36.9176 59.912 37.2216 60.004 37.5976 60.06C37.9816 60.116 38.4176 60.152 38.9056 60.168C39.3936 60.184 39.8896 60.212 40.3936 60.252C40.8976 60.292 41.3936 60.36 41.8816 60.456C42.3696 60.544 42.8016 60.696 43.1776 60.912C43.5616 61.12 43.8696 61.404 44.1016 61.764C44.3336 62.124 44.4496 62.592 44.4496 63.168C44.4496 63.696 44.3176 64.212 44.0536 64.716C43.7896 65.22 43.4056 65.668 42.9016 66.06C42.4056 66.452 41.7976 66.764 41.0776 66.996C40.3576 67.236 39.5376 67.356 38.6176 67.356C37.7056 67.356 36.9096 67.268 36.2296 67.092C35.5576 66.916 34.9936 66.676 34.5376 66.372C34.0896 66.076 33.7536 65.732 33.5296 65.34C33.3136 64.948 33.2056 64.54 33.2056 64.116C33.2056 63.54 33.3856 63.048 33.7456 62.64C34.1136 62.232 34.6096 61.912 35.2336 61.68C34.8976 61.52 34.6256 61.3 34.4176 61.02C34.2176 60.74 34.1176 60.372 34.1176 59.916C34.1176 59.556 34.2496 59.18 34.5136 58.788C34.7776 58.396 35.1736 58.064 35.7016 57.792C35.0936 57.456 34.6136 57.012 34.2616 56.46C33.9096 55.9 33.7336 55.248 33.7336 54.504C33.7336 53.896 33.8496 53.348 34.0816 52.86C34.3216 52.372 34.6536 51.956 35.0776 51.612C35.5016 51.268 36.0016 51.004 36.5776 50.82C37.1616 50.636 37.7976 50.544 38.4856 50.544C39.5416 50.544 40.4616 50.764 41.2456 51.204H44.6656ZM54.4246 50.568C55.3286 50.568 56.1446 50.716 56.8726 51.012C57.6086 51.308 58.2326 51.728 58.7446 52.272C59.2646 52.816 59.6646 53.476 59.9446 54.252C60.2246 55.028 60.3646 55.9 60.3646 56.868C60.3646 57.836 60.2246 58.708 59.9446 59.484C59.6646 60.26 59.2646 60.924 58.7446 61.476C58.2326 62.02 57.6086 62.44 56.8726 62.736C56.1446 63.032 55.3286 63.18 54.4246 63.18C53.5126 63.18 52.6886 63.032 51.9526 62.736C51.2246 62.44 50.6006 62.02 50.0806 61.476C49.5606 60.924 49.1606 60.26 48.8806 59.484C48.6006 58.708 48.4606 57.836 48.4606 56.868C48.4606 55.9 48.6006 55.028 48.8806 54.252C49.1606 53.476 49.5606 52.816 50.0806 52.272C50.6006 51.728 51.2246 51.308 51.9526 51.012C52.6886 50.716 53.5126 50.568 54.4246 50.568ZM54.4246 61.164C55.5286 61.164 56.3486 60.796 56.8846 60.06C57.4286 59.316 57.7006 58.256 57.7006 56.88C57.7006 55.504 57.4286 54.444 56.8846 53.7C56.3486 52.948 55.5286 52.572 54.4246 52.572C53.3046 52.572 52.4726 52.948 51.9286 53.7C51.3846 54.444 51.1126 55.504 51.1126 56.88C51.1126 58.256 51.3846 59.316 51.9286 60.06C52.4726 60.796 53.3046 61.164 54.4246 61.164Z" fill="white"/>
<defs>
<clipPath id="clip0_220_1102">
<rect width="65" height="38.5465" fill="white"/>
</clipPath>
</defs>
</svg>
