<svg width="19" height="19" viewBox="0 0 19 19" fill="none" xmlns="http://www.w3.org/2000/svg">
<path d="M2.95387 17.8435L8.05859 12.7425L5.41912 10.103L0.314396 15.2077C-0.104511 15.6267 -0.104511 16.3162 0.314396 16.7351L1.42283 17.8435C1.84544 18.2625 2.53867 18.2625 2.95387 17.8435Z" fill="#ACB1C6"/>
<path d="M6.55717 10.2182L7.93993 11.601L9.51546 10.0254C11.6619 11.5157 14.635 11.3081 16.5479 9.39521C18.6943 7.24878 18.6943 3.76037 16.5479 1.61024C14.4015 -0.539901 10.9131 -0.536194 8.76292 1.61024C6.85004 3.52312 6.64244 6.49623 8.1327 8.64266L6.55717 10.2182ZM9.8454 2.67789C11.4024 1.12089 13.927 1.12089 15.4802 2.67789C17.0372 4.23489 17.0372 6.75944 15.4802 8.31273C13.9232 9.86973 11.3987 9.86972 9.8454 8.31273C8.2884 6.75944 8.2884 4.23488 9.8454 2.67789Z" fill="#ACB1C6"/>
</svg>
